STARTFONT 2.1
FONT -Adobe-Utopia-Regular-I-Normal--17-120-100-100-P-89-ISO10646-1
SIZE 12 100 100
FONTBOUNDINGBOX 23 28 -3 -8
COMMENT $Xorg: $
COMMENT ISO10646-1 extension by Markus Kuhn <mkuhn@acm.org>, 2001-03-20
STARTPROPERTIES 28
FOUNDRY "Adobe"
FAMILY_NAME "Utopia"
WEIGHT_NAME "Regular"
SLANT "I"
SETWIDTH_NAME "Normal"
ADD_STYLE_NAME ""
PIXEL_SIZE 17
POINT_SIZE 120
RESOLUTION_X 100
RESOLUTION_Y 100
SPACING "P"
AVERAGE_WIDTH 89
CHARSET_REGISTRY "ISO10646"
CHARSET_ENCODING "1"
CAP_HEIGHT 12
X_HEIGHT 8
RELATIVE_SETWIDTH 50
RELATIVE_WEIGHT 50
WEIGHT 130
FACE_NAME "Utopia Italic"
COPYRIGHT "Copyright (c) 1989, 1991 Adobe Systems Incorporated.  All Rights Reserved."
NOTICE "Utopia is a registered trademark of Adobe Systems Incorporated."
DESTINATION 0
FONT_ASCENT 15
FONT_DESCENT 4
DEFAULT_CHAR 0
_ADOBE_PSFONT "Utopia-Italic"
_DEC_DEVICE_FONTNAMES "PS=Utopia-Italic"
ENDPROPERTIES
CHARS 723
STARTCHAR char0
ENCODING 0
SWIDTH 775 0
DWIDTH 13 0
BBX 13 11 1 0
BITMAP
AAA8
0000
8008
0000
8008
0000
8008
0000
8008
0000
AAA8
ENDCHAR
STARTCHAR space
ENCODING 32
SWIDTH 225 0
DWIDTH 4 0
BBX 0 0 0 0
BITMAP
ENDCHAR
STARTCHAR exclam
ENCODING 33
SWIDTH 240 0
DWIDTH 4 0
BBX 4 12 1 0
BITMAP
10
20
20
20
20
40
40
40
00
00
40
80
ENDCHAR
STARTCHAR quotedbl
ENCODING 34
SWIDTH 402 0
DWIDTH 7 0
BBX 5 5 3 7
BITMAP
48
90
90
90
90
ENDCHAR
STARTCHAR numbersign
ENCODING 35
SWIDTH 530 0
DWIDTH 9 0
BBX 9 11 1 0
BITMAP
0900
0900
1200
7F80
1200
2400
FF00
2400
4800
4800
C800
ENDCHAR
STARTCHAR dollar
ENCODING 36
SWIDTH 530 0
DWIDTH 9 0
BBX 9 14 1 -2
BITMAP
0200
0E00
1380
2480
2400
1800
0600
0900
0900
C900
5200
3C00
1000
2000
ENDCHAR
STARTCHAR percent
ENCODING 37
SWIDTH 826 0
DWIDTH 14 0
BBX 12 12 2 0
BITMAP
0030
3FC0
4440
8480
8900
8A00
72E0
0510
0910
1210
2220
61C0
ENDCHAR
STARTCHAR ampersand
ENCODING 38
SWIDTH 725 0
DWIDTH 12 0
BBX 11 11 2 0
BITMAP
0C00
3200
2200
2440
2860
3880
4880
8500
8200
4D00
30C0
ENDCHAR
STARTCHAR quotesingle
ENCODING 39
SWIDTH 216 0
DWIDTH 4 0
BBX 2 5 3 7
BITMAP
40
80
80
80
80
ENDCHAR
STARTCHAR parenleft
ENCODING 40
SWIDTH 350 0
DWIDTH 6 0
BBX 6 14 2 -2
BITMAP
0C
10
20
20
40
40
80
80
80
80
80
80
40
60
ENDCHAR
STARTCHAR parenright
ENCODING 41
SWIDTH 350 0
DWIDTH 6 0
BBX 6 14 0 -2
BITMAP
10
08
04
04
04
04
04
04
08
08
08
10
20
C0
ENDCHAR
STARTCHAR asterisk
ENCODING 42
SWIDTH 412 0
DWIDTH 7 0
BBX 6 6 2 6
BITMAP
10
54
38
70
A8
20
ENDCHAR
STARTCHAR plus
ENCODING 43
SWIDTH 570 0
DWIDTH 9 0
BBX 7 8 2 0
BITMAP
10
10
10
FE
10
10
10
10
ENDCHAR
STARTCHAR comma
ENCODING 44
SWIDTH 265 0
DWIDTH 4 0
BBX 2 5 1 -2
BITMAP
40
40
40
80
80
ENDCHAR
STARTCHAR hyphen
ENCODING 45
SWIDTH 392 0
DWIDTH 7 0
BBX 4 1 2 4
BITMAP
F0
ENDCHAR
STARTCHAR period
ENCODING 46
SWIDTH 265 0
DWIDTH 4 0
BBX 2 2 1 0
BITMAP
40
80
ENDCHAR
STARTCHAR slash
ENCODING 47
SWIDTH 270 0
DWIDTH 4 0
BBX 6 12 0 0
BITMAP
04
08
08
10
10
10
20
20
20
40
40
80
ENDCHAR
STARTCHAR zero
ENCODING 48
SWIDTH 530 0
DWIDTH 9 0
BBX 7 11 2 0
BITMAP
1C
22
42
42
42
82
84
84
84
C8
30
ENDCHAR
STARTCHAR one
ENCODING 49
SWIDTH 530 0
DWIDTH 9 0
BBX 6 11 2 0
BITMAP
04
38
08
08
08
10
10
10
10
10
FC
ENDCHAR
STARTCHAR two
ENCODING 50
SWIDTH 530 0
DWIDTH 9 0
BBX 8 11 1 0
BITMAP
0E
11
21
01
01
06
08
10
20
41
FE
ENDCHAR
STARTCHAR three
ENCODING 51
SWIDTH 530 0
DWIDTH 9 0
BBX 8 11 1 0
BITMAP
0E
11
21
02
1C
06
02
02
82
44
38
ENDCHAR
STARTCHAR four
ENCODING 52
SWIDTH 530 0
DWIDTH 9 0
BBX 7 11 2 0
BITMAP
02
04
0C
14
24
44
44
FE
08
08
3C
ENDCHAR
STARTCHAR five
ENCODING 53
SWIDTH 530 0
DWIDTH 9 0
BBX 9 11 1 0
BITMAP
1F80
2000
2000
2000
3E00
4100
0100
0100
8100
C600
3800
ENDCHAR
STARTCHAR six
ENCODING 54
SWIDTH 530 0
DWIDTH 9 0
BBX 8 11 2 0
BITMAP
1E
21
41
40
7C
82
82
82
82
44
38
ENDCHAR
STARTCHAR seven
ENCODING 55
SWIDTH 530 0
DWIDTH 9 0
BBX 8 11 3 0
BITMAP
7F
82
04
04
08
10
20
40
40
C0
40
ENDCHAR
STARTCHAR eight
ENCODING 56
SWIDTH 530 0
DWIDTH 9 0
BBX 7 11 2 0
BITMAP
1C
22
42
44
38
46
82
82
82
C4
38
ENDCHAR
STARTCHAR nine
ENCODING 57
SWIDTH 530 0
DWIDTH 9 0
BBX 7 11 2 0
BITMAP
38
44
82
82
86
7A
02
04
84
98
60
ENDCHAR
STARTCHAR colon
ENCODING 58
SWIDTH 265 0
DWIDTH 4 0
BBX 3 8 2 0
BITMAP
20
60
00
00
00
00
C0
80
ENDCHAR
STARTCHAR semicolon
ENCODING 59
SWIDTH 265 0
DWIDTH 4 0
BBX 4 10 1 -2
BITMAP
30
20
00
00
00
00
40
40
40
80
ENDCHAR
STARTCHAR less
ENCODING 60
SWIDTH 570 0
DWIDTH 9 0
BBX 8 9 1 -1
BITMAP
01
03
0C
70
80
60
18
06
01
ENDCHAR
STARTCHAR equal
ENCODING 61
SWIDTH 570 0
DWIDTH 9 0
BBX 8 4 2 2
BITMAP
FF
00
00
FF
ENDCHAR
STARTCHAR greater
ENCODING 62
SWIDTH 570 0
DWIDTH 9 0
BBX 8 9 1 -1
BITMAP
80
C0
30
0E
01
06
18
60
80
ENDCHAR
STARTCHAR question
ENCODING 63
SWIDTH 425 0
DWIDTH 7 0
BBX 6 12 2 0
BITMAP
18
24
44
04
08
30
40
40
30
00
C0
40
ENDCHAR
STARTCHAR at
ENCODING 64
SWIDTH 794 0
DWIDTH 13 0
BBX 12 12 2 0
BITMAP
0F80
1040
2020
4790
4890
8910
9110
9720
88C0
4000
3080
0F00
ENDCHAR
STARTCHAR A
ENCODING 65
SWIDTH 624 0
DWIDTH 10 0
BBX 11 12 0 0
BITMAP
0080
0180
0280
0480
0480
0880
0F80
1080
1080
20C0
2080
F1E0
ENDCHAR
STARTCHAR B
ENCODING 66
SWIDTH 632 0
DWIDTH 11 0
BBX 10 12 1 0
BITMAP
3F00
18C0
0840
1040
1080
1F00
1100
1080
2080
2080
2100
FE00
ENDCHAR
STARTCHAR C
ENCODING 67
SWIDTH 661 0
DWIDTH 11 0
BBX 11 12 2 0
BITMAP
0F00
30E0
4040
4040
4000
8000
8000
8000
8080
8100
4100
3E00
ENDCHAR
STARTCHAR D
ENCODING 68
SWIDTH 763 0
DWIDTH 13 0
BBX 12 12 1 0
BITMAP
1F80
0860
0810
0810
0810
1010
1010
1020
1020
2060
2080
FF00
ENDCHAR
STARTCHAR E
ENCODING 69
SWIDTH 596 0
DWIDTH 10 0
BBX 11 12 1 0
BITMAP
1FE0
0840
0840
0800
0800
0880
1F00
1100
2000
2080
2080
FF00
ENDCHAR
STARTCHAR F
ENCODING 70
SWIDTH 571 0
DWIDTH 10 0
BBX 11 12 1 0
BITMAP
1FE0
0840
0840
0800
0800
0880
1F00
1100
2000
2000
2000
F000
ENDCHAR
STARTCHAR G
ENCODING 71
SWIDTH 709 0
DWIDTH 12 0
BBX 11 12 2 0
BITMAP
0F80
1060
2040
4040
4000
8000
8000
83E0
8080
8080
6180
1E00
ENDCHAR
STARTCHAR H
ENCODING 72
SWIDTH 775 0
DWIDTH 13 0
BBX 14 12 1 0
BITMAP
3E7C
0810
0810
0810
1020
1020
1FE0
1020
2040
2040
2040
F9F0
ENDCHAR
STARTCHAR I
ENCODING 73
SWIDTH 345 0
DWIDTH 6 0
BBX 7 12 1 0
BITMAP
3E
08
08
08
10
10
10
10
20
20
20
F8
ENDCHAR
STARTCHAR J
ENCODING 74
SWIDTH 352 0
DWIDTH 6 0
BBX 9 14 -1 -2
BITMAP
0F80
0200
0200
0400
0400
0400
0400
0800
0800
0800
0800
1000
2000
C000
ENDCHAR
STARTCHAR K
ENCODING 75
SWIDTH 650 0
DWIDTH 11 0
BBX 12 12 1 0
BITMAP
3CF0
0840
0880
1300
1400
1800
1400
1400
2200
2200
2100
F8C0
ENDCHAR
STARTCHAR L
ENCODING 76
SWIDTH 565 0
DWIDTH 9 0
BBX 9 12 1 0
BITMAP
3E00
0800
0800
1000
1000
1000
1000
1000
2000
2080
2100
FF00
ENDCHAR
STARTCHAR M
ENCODING 77
SWIDTH 920 0
DWIDTH 15 0
BBX 17 12 0 0
BITMAP
1C0380
0C0600
0C0A00
141200
121400
122400
122400
124800
228800
210800
210800
F13C00
ENDCHAR
STARTCHAR N
ENCODING 78
SWIDTH 763 0
DWIDTH 13 0
BBX 15 12 0 0
BITMAP
1C1E
0C08
0A08
0A08
1110
1110
1090
1090
2090
2060
2040
F020
ENDCHAR
STARTCHAR O
ENCODING 79
SWIDTH 753 0
DWIDTH 13 0
BBX 11 12 2 0
BITMAP
0F80
1040
2020
4020
4020
8020
8020
8040
8040
8080
6100
1E00
ENDCHAR
STARTCHAR P
ENCODING 80
SWIDTH 614 0
DWIDTH 10 0
BBX 10 12 1 0
BITMAP
1F00
0880
0840
0840
0840
0840
1180
1E00
1000
2000
2000
F800
ENDCHAR
STARTCHAR Q
ENCODING 81
SWIDTH 753 0
DWIDTH 13 0
BBX 11 16 2 -4
BITMAP
0F80
1040
2020
4020
4020
8020
8020
8040
8040
8040
4180
3E00
0400
0600
0300
00C0
ENDCHAR
STARTCHAR R
ENCODING 82
SWIDTH 640 0
DWIDTH 11 0
BBX 10 12 1 0
BITMAP
3F00
08C0
0840
0840
1040
1180
1E00
2100
2100
2100
2100
F0C0
ENDCHAR
STARTCHAR S
ENCODING 83
SWIDTH 533 0
DWIDTH 9 0
BBX 9 12 1 0
BITMAP
0E00
1180
2100
2000
1000
0C00
0600
0100
8100
8100
4200
3C00
ENDCHAR
STARTCHAR T
ENCODING 84
SWIDTH 606 0
DWIDTH 10 0
BBX 11 12 2 0
BITMAP
7FE0
8440
8840
0800
0800
0800
1000
1000
1000
1000
1000
FC00
ENDCHAR
STARTCHAR U
ENCODING 85
SWIDTH 794 0
DWIDTH 13 0
BBX 12 12 3 0
BITMAP
F1F0
4040
4040
4080
4080
8080
8080
8100
8100
8200
4600
3800
ENDCHAR
STARTCHAR V
ENCODING 86
SWIDTH 637 0
DWIDTH 11 0
BBX 11 12 2 0
BITMAP
F1E0
4080
6080
2100
2100
2200
2200
2400
2800
3800
3000
2000
ENDCHAR
STARTCHAR W
ENCODING 87
SWIDTH 946 0
DWIDTH 16 0
BBX 16 12 2 0
BITMAP
F00F
2082
6184
6284
2288
2288
2490
2490
28A0
28A0
30C0
2080
ENDCHAR
STARTCHAR X
ENCODING 88
SWIDTH 632 0
DWIDTH 11 0
BBX 13 12 0 0
BITMAP
1E78
0420
0440
0480
0300
0200
0200
0500
0900
1080
2080
F1E0
ENDCHAR
STARTCHAR Y
ENCODING 89
SWIDTH 591 0
DWIDTH 10 0
BBX 10 12 3 0
BITMAP
E3C0
4100
4200
2200
2400
2800
1000
2000
2000
2000
2000
F800
ENDCHAR
STARTCHAR Z
ENCODING 90
SWIDTH 622 0
DWIDTH 10 0
BBX 12 12 0 0
BITMAP
0FF0
1020
1040
0080
0100
0200
0600
0800
1000
2040
4040
FF80
ENDCHAR
STARTCHAR bracketleft
ENCODING 91
SWIDTH 330 0
DWIDTH 5 0
BBX 6 14 2 -2
BITMAP
0C
10
10
10
20
20
20
20
40
40
40
40
40
E0
ENDCHAR
STARTCHAR backslash
ENCODING 92
SWIDTH 390 0
DWIDTH 6 0
BBX 5 12 2 0
BITMAP
80
40
40
40
20
20
20
20
10
10
10
08
ENDCHAR
STARTCHAR bracketright
ENCODING 93
SWIDTH 330 0
DWIDTH 5 0
BBX 6 14 0 -2
BITMAP
1C
08
08
08
08
08
10
10
10
10
20
20
20
C0
ENDCHAR
STARTCHAR asciicircum
ENCODING 94
SWIDTH 570 0
DWIDTH 9 0
BBX 8 7 2 4
BITMAP
08
18
24
24
42
42
C3
ENDCHAR
STARTCHAR underscore
ENCODING 95
SWIDTH 500 0
DWIDTH 8 0
BBX 8 1 0 -2
BITMAP
FF
ENDCHAR
STARTCHAR grave
ENCODING 96
SWIDTH 400 0
DWIDTH 7 0
BBX 4 3 3 9
BITMAP
80
40
30
ENDCHAR
STARTCHAR a
ENCODING 97
SWIDTH 561 0
DWIDTH 9 0
BBX 9 8 1 0
BITMAP
0F80
1100
2100
4100
8200
8600
9A80
6300
ENDCHAR
STARTCHAR b
ENCODING 98
SWIDTH 559 0
DWIDTH 9 0
BBX 8 12 2 0
BITMAP
18
70
10
20
26
29
31
21
42
42
44
B8
ENDCHAR
STARTCHAR c
ENCODING 99
SWIDTH 441 0
DWIDTH 7 0
BBX 6 8 2 0
BITMAP
18
24
44
80
80
84
88
70
ENDCHAR
STARTCHAR d
ENCODING 100
SWIDTH 587 0
DWIDTH 10 0
BBX 9 12 2 0
BITMAP
0180
0300
0100
0100
1E00
2200
4200
4200
8400
8C00
9500
6600
ENDCHAR
STARTCHAR e
ENCODING 101
SWIDTH 453 0
DWIDTH 8 0
BBX 6 8 2 0
BITMAP
18
24
44
98
60
84
88
70
ENDCHAR
STARTCHAR f
ENCODING 102
SWIDTH 315 0
DWIDTH 5 0
BBX 10 16 -1 -4
BITMAP
0180
0240
0400
0400
1F00
0400
0800
0800
0800
0800
0800
1000
1000
1000
A000
4000
ENDCHAR
STARTCHAR g
ENCODING 103
SWIDTH 499 0
DWIDTH 8 0
BBX 9 12 1 -4
BITMAP
1D80
2200
4200
4400
3800
4000
3000
4C00
8200
8200
4400
3800
ENDCHAR
STARTCHAR h
ENCODING 104
SWIDTH 607 0
DWIDTH 10 0
BBX 8 12 2 0
BITMAP
18
70
10
10
22
2D
31
32
64
45
45
C6
ENDCHAR
STARTCHAR i
ENCODING 105
SWIDTH 317 0
DWIDTH 5 0
BBX 4 12 2 0
BITMAP
10
20
00
00
A0
40
40
40
80
A0
A0
C0
ENDCHAR
STARTCHAR j
ENCODING 106
SWIDTH 309 0
DWIDTH 5 0
BBX 7 16 -1 -4
BITMAP
06
04
00
00
1C
04
04
08
08
08
08
10
10
10
A0
40
ENDCHAR
STARTCHAR k
ENCODING 107
SWIDTH 545 0
DWIDTH 9 0
BBX 8 12 2 0
BITMAP
10
70
10
20
27
28
28
48
50
49
4A
84
ENDCHAR
STARTCHAR l
ENCODING 108
SWIDTH 306 0
DWIDTH 5 0
BBX 4 12 2 0
BITMAP
30
60
20
20
40
40
40
40
80
A0
A0
C0
ENDCHAR
STARTCHAR m
ENCODING 109
SWIDTH 912 0
DWIDTH 15 0
BBX 13 8 2 0
BITMAP
4230
2D48
2988
3110
2220
4228
4228
C630
ENDCHAR
STARTCHAR n
ENCODING 110
SWIDTH 618 0
DWIDTH 10 0
BBX 8 8 2 0
BITMAP
42
2D
29
32
24
45
45
C6
ENDCHAR
STARTCHAR o
ENCODING 111
SWIDTH 537 0
DWIDTH 9 0
BBX 7 8 2 0
BITMAP
1C
22
42
82
82
84
8C
70
ENDCHAR
STARTCHAR p
ENCODING 112
SWIDTH 590 0
DWIDTH 10 0
BBX 9 12 1 -4
BITMAP
7300
1480
1880
1080
2100
2100
2200
5C00
4000
4000
4000
C000
ENDCHAR
STARTCHAR q
ENCODING 113
SWIDTH 559 0
DWIDTH 9 0
BBX 8 12 2 -4
BITMAP
1D
22
42
42
84
8C
B4
44
04
08
08
08
ENDCHAR
STARTCHAR r
ENCODING 114
SWIDTH 402 0
DWIDTH 7 0
BBX 6 8 2 0
BITMAP
8C
50
60
40
40
40
80
80
ENDCHAR
STARTCHAR s
ENCODING 115
SWIDTH 389 0
DWIDTH 6 0
BBX 6 8 1 0
BITMAP
38
44
40
20
10
88
88
70
ENDCHAR
STARTCHAR t
ENCODING 116
SWIDTH 341 0
DWIDTH 6 0
BBX 5 10 2 0
BITMAP
20
20
F8
40
40
40
80
A0
A0
C0
ENDCHAR
STARTCHAR u
ENCODING 117
SWIDTH 618 0
DWIDTH 10 0
BBX 8 8 2 0
BITMAP
A1
42
42
42
84
8D
95
66
ENDCHAR
STARTCHAR v
ENCODING 118
SWIDTH 510 0
DWIDTH 8 0
BBX 7 8 2 0
BITMAP
C2
42
42
42
84
88
90
60
ENDCHAR
STARTCHAR w
ENCODING 119
SWIDTH 785 0
DWIDTH 13 0
BBX 12 8 2 0
BITMAP
C310
4210
4210
4410
8420
8C40
B480
4300
ENDCHAR
STARTCHAR x
ENCODING 120
SWIDTH 516 0
DWIDTH 9 0
BBX 8 8 1 0
BITMAP
63
14
18
10
18
29
2A
C4
ENDCHAR
STARTCHAR y
ENCODING 121
SWIDTH 468 0
DWIDTH 8 0
BBX 9 12 0 -4
BITMAP
3080
0880
0880
0900
0900
0A00
0A00
0C00
0800
0800
5000
E000
ENDCHAR
STARTCHAR z
ENCODING 122
SWIDTH 468 0
DWIDTH 8 0
BBX 8 8 1 0
BITMAP
3F
42
04
08
10
21
62
9C
ENDCHAR
STARTCHAR braceleft
ENCODING 123
SWIDTH 340 0
DWIDTH 6 0
BBX 5 14 2 -2
BITMAP
08
10
20
20
20
20
C0
20
20
20
40
80
80
40
ENDCHAR
STARTCHAR bar
ENCODING 124
SWIDTH 270 0
DWIDTH 4 0
BBX 1 12 3 0
BITMAP
80
80
80
80
80
80
80
80
80
80
80
80
ENDCHAR
STARTCHAR braceright
ENCODING 125
SWIDTH 340 0
DWIDTH 6 0
BBX 6 14 0 -2
BITMAP
08
04
04
08
10
10
08
10
20
20
20
20
40
80
ENDCHAR
STARTCHAR asciitilde
ENCODING 126
SWIDTH 570 0
DWIDTH 9 0
BBX 7 2 2 3
BITMAP
72
8C
ENDCHAR
STARTCHAR space
ENCODING 160
SWIDTH 225 0
DWIDTH 4 0
BBX 0 0 0 0
BITMAP
ENDCHAR
STARTCHAR exclamdown
ENCODING 161
SWIDTH 240 0
DWIDTH 4 0
BBX 4 12 0 -4
BITMAP
10
20
00
00
20
20
20
40
40
40
40
80
ENDCHAR
STARTCHAR cent
ENCODING 162
SWIDTH 530 0
DWIDTH 9 0
BBX 8 12 2 -1
BITMAP
04
04
1E
29
48
88
90
90
92
7C
20
20
ENDCHAR
STARTCHAR sterling
ENCODING 163
SWIDTH 530 0
DWIDTH 9 0
BBX 9 11 1 0
BITMAP
0700
0880
1000
1000
1000
3C00
1000
1000
1000
2200
FC00
ENDCHAR
STARTCHAR currency
ENCODING 164
SWIDTH 530 0
DWIDTH 9 0
BBX 7 7 2 2
BITMAP
9A
64
82
82
82
64
BA
ENDCHAR
STARTCHAR yen
ENCODING 165
SWIDTH 530 0
DWIDTH 9 0
BBX 10 11 2 0
BITMAP
7BC0
2100
2200
1200
1400
7E00
1000
FE00
1000
1000
7800
ENDCHAR
STARTCHAR brokenbar
ENCODING 166
SWIDTH 270 0
DWIDTH 4 0
BBX 1 12 3 0
BITMAP
80
80
80
80
80
00
00
80
80
80
80
80
ENDCHAR
STARTCHAR section
ENCODING 167
SWIDTH 530 0
DWIDTH 9 0
BBX 7 14 2 -2
BITMAP
0C
12
20
60
98
84
84
42
22
16
08
88
98
60
ENDCHAR
STARTCHAR dieresis
ENCODING 168
SWIDTH 400 0
DWIDTH 7 0
BBX 5 1 4 10
BITMAP
D8
ENDCHAR
STARTCHAR copyright
ENCODING 169
SWIDTH 836 0
DWIDTH 14 0
BBX 12 12 2 0
BITMAP
0F00
1080
2040
4620
8990
9010
9010
9010
8890
4720
3040
0F80
ENDCHAR
STARTCHAR ordfeminine
ENCODING 170
SWIDTH 425 0
DWIDTH 7 0
BBX 7 5 2 5
BITMAP
3C
44
88
9A
6C
ENDCHAR
STARTCHAR guillemotleft
ENCODING 171
SWIDTH 462 0
DWIDTH 8 0
BBX 7 7 2 0
BITMAP
12
24
48
C8
48
44
24
ENDCHAR
STARTCHAR logicalnot
ENCODING 172
SWIDTH 570 0
DWIDTH 9 0
BBX 8 5 2 1
BITMAP
FF
01
01
01
01
ENDCHAR
STARTCHAR hyphen
ENCODING 173
SWIDTH 392 0
DWIDTH 7 0
BBX 4 1 2 4
BITMAP
F0
ENDCHAR
STARTCHAR registered
ENCODING 174
SWIDTH 836 0
DWIDTH 14 0
BBX 12 12 2 0
BITMAP
0F00
3080
4040
5E20
8910
8910
8E10
8B10
8910
5C20
20C0
1F00
ENDCHAR
STARTCHAR macron
ENCODING 175
SWIDTH 400 0
DWIDTH 7 0
BBX 5 1 4 10
BITMAP
F8
ENDCHAR
STARTCHAR degree
ENCODING 176
SWIDTH 400 0
DWIDTH 7 0
BBX 5 4 3 7
BITMAP
70
88
88
70
ENDCHAR
STARTCHAR plusminus
ENCODING 177
SWIDTH 570 0
DWIDTH 9 0
BBX 7 9 2 0
BITMAP
10
10
10
FE
10
10
10
00
FE
ENDCHAR
STARTCHAR twosuperior
ENCODING 178
SWIDTH 370 0
DWIDTH 6 0
BBX 5 6 2 5
BITMAP
30
48
08
30
40
F8
ENDCHAR
STARTCHAR threesuperior
ENCODING 179
SWIDTH 370 0
DWIDTH 6 0
BBX 6 6 1 5
BITMAP
18
24
04
38
88
70
ENDCHAR
STARTCHAR acute
ENCODING 180
SWIDTH 400 0
DWIDTH 7 0
BBX 4 3 4 9
BITMAP
10
20
C0
ENDCHAR
STARTCHAR mu
ENCODING 181
SWIDTH 618 0
DWIDTH 10 0
BBX 9 12 1 -4
BITMAP
5080
2100
2100
2100
2200
2600
6A80
B300
8000
8000
8000
8000
ENDCHAR
STARTCHAR paragraph
ENCODING 182
SWIDTH 560 0
DWIDTH 9 0
BBX 9 14 2 -2
BITMAP
1980
3200
7200
7200
E400
6400
6400
2400
0400
0800
0800
0800
0800
3000
ENDCHAR
STARTCHAR periodcentered
ENCODING 183
SWIDTH 265 0
DWIDTH 4 0
BBX 2 2 2 3
BITMAP
40
80
ENDCHAR
STARTCHAR cedilla
ENCODING 184
SWIDTH 400 0
DWIDTH 7 0
BBX 3 4 2 -4
BITMAP
40
40
20
C0
ENDCHAR
STARTCHAR onesuperior
ENCODING 185
SWIDTH 370 0
DWIDTH 6 0
BBX 4 6 2 5
BITMAP
10
70
20
20
20
F0
ENDCHAR
STARTCHAR ordmasculine
ENCODING 186
SWIDTH 389 0
DWIDTH 6 0
BBX 5 5 2 5
BITMAP
30
48
88
90
60
ENDCHAR
STARTCHAR guillemotright
ENCODING 187
SWIDTH 462 0
DWIDTH 8 0
BBX 7 7 1 0
BITMAP
48
44
24
26
24
48
90
ENDCHAR
STARTCHAR onequarter
ENCODING 188
SWIDTH 890 0
DWIDTH 15 0
BBX 11 12 3 0
BITMAP
0040
2040
6080
2100
4100
4260
E4C0
0940
1240
17E0
2080
41C0
ENDCHAR
STARTCHAR onehalf
ENCODING 189
SWIDTH 890 0
DWIDTH 15 0
BBX 12 12 2 0
BITMAP
0040
2060
6080
2100
4200
42E0
E510
0910
1020
20C0
2110
43E0
ENDCHAR
STARTCHAR threequarters
ENCODING 190
SWIDTH 890 0
DWIDTH 15 0
BBX 12 13 2 -1
BITMAP
0020
1820
2440
0440
3880
8910
7270
0290
04A0
09F0
1020
10F0
2000
ENDCHAR
STARTCHAR questiondown
ENCODING 191
SWIDTH 425 0
DWIDTH 7 0
BBX 5 12 1 -4
BITMAP
10
18
00
30
08
08
30
40
80
88
90
60
ENDCHAR
STARTCHAR Agrave
ENCODING 192
SWIDTH 624 0
DWIDTH 10 0
BBX 12 15 -1 0
BITMAP
0200
01C0
0000
0080
0180
0280
0280
0480
0840
0FC0
1040
1040
2040
2040
F1F0
ENDCHAR
STARTCHAR Aacute
ENCODING 193
SWIDTH 624 0
DWIDTH 10 0
BBX 12 14 -1 0
BITMAP
0030
01C0
0000
0180
0280
0280
0480
0840
0FC0
1040
1040
2040
2040
F1F0
ENDCHAR
STARTCHAR Acircumflex
ENCODING 194
SWIDTH 624 0
DWIDTH 10 0
BBX 12 14 -1 0
BITMAP
01C0
0220
00A0
0180
0280
0280
0480
0840
0FC0
1040
1040
2040
2040
F1F0
ENDCHAR
STARTCHAR Atilde
ENCODING 195
SWIDTH 624 0
DWIDTH 10 0
BBX 11 14 0 0
BITMAP
0320
04C0
0000
0180
0280
0480
0480
0880
0F80
1080
1080
20C0
2080
F1E0
ENDCHAR
STARTCHAR Adieresis
ENCODING 196
SWIDTH 624 0
DWIDTH 10 0
BBX 11 14 -1 0
BITMAP
0120
0000
00C0
00C0
0140
0240
0240
0440
07C0
0840
1040
2020
2040
F8E0
ENDCHAR
STARTCHAR Aring
ENCODING 197
SWIDTH 624 0
DWIDTH 10 0
BBX 12 15 -1 0
BITMAP
00C0
0120
0120
00C0
00C0
0140
0240
0440
0440
07C0
0840
1020
2020
2020
F0F0
ENDCHAR
STARTCHAR AE
ENCODING 198
SWIDTH 880 0
DWIDTH 15 0
BBX 18 12 -1 0
BITMAP
00FFC0
005080
009080
00A000
012000
022100
03FE00
044200
084000
104100
204100
F1FE00
ENDCHAR
STARTCHAR Ccedilla
ENCODING 199
SWIDTH 661 0
DWIDTH 11 0
BBX 11 16 2 -4
BITMAP
0F00
30E0
4040
4040
4000
8000
8000
8000
8080
8100
4100
3E00
1000
1000
0800
3000
ENDCHAR
STARTCHAR Egrave
ENCODING 200
SWIDTH 596 0
DWIDTH 10 0
BBX 11 15 1 0
BITMAP
0400
0700
0000
1FE0
0840
0840
0800
0800
0880
1F00
1100
2000
2080
2080
FF00
ENDCHAR
STARTCHAR Eacute
ENCODING 201
SWIDTH 596 0
DWIDTH 10 0
BBX 11 14 1 0
BITMAP
00C0
0300
1FE0
0840
0840
0800
0800
0880
1F00
1100
2000
2080
2080
FF00
ENDCHAR
STARTCHAR Ecircumflex
ENCODING 202
SWIDTH 596 0
DWIDTH 10 0
BBX 11 14 1 0
BITMAP
0200
0580
1FE0
0840
0840
0800
0800
0880
1F00
1100
2000
2080
2080
FF00
ENDCHAR
STARTCHAR Edieresis
ENCODING 203
SWIDTH 596 0
DWIDTH 10 0
BBX 11 14 1 0
BITMAP
0880
0000
1FE0
0840
0840
0800
0800
0880
1F00
1100
2000
2080
2080
FF00
ENDCHAR
STARTCHAR Igrave
ENCODING 204
SWIDTH 345 0
DWIDTH 6 0
BBX 7 15 1 0
BITMAP
10
3C
00
3E
08
08
08
10
10
10
10
20
20
20
F8
ENDCHAR
STARTCHAR Iacute
ENCODING 205
SWIDTH 345 0
DWIDTH 6 0
BBX 7 14 1 0
BITMAP
06
18
3E
08
08
10
10
10
10
20
20
20
20
F0
ENDCHAR
STARTCHAR Icircumflex
ENCODING 206
SWIDTH 345 0
DWIDTH 6 0
BBX 7 14 1 0
BITMAP
08
16
3E
08
08
10
10
10
10
20
20
20
20
F0
ENDCHAR
STARTCHAR Idieresis
ENCODING 207
SWIDTH 345 0
DWIDTH 6 0
BBX 7 14 1 0
BITMAP
22
00
3E
18
10
10
10
10
20
20
20
20
20
F0
ENDCHAR
STARTCHAR Eth
ENCODING 208
SWIDTH 770 0
DWIDTH 13 0
BBX 12 12 1 0
BITMAP
1F80
0860
0820
0810
0810
1010
7E10
1010
1020
2020
20C0
FF00
ENDCHAR
STARTCHAR Ntilde
ENCODING 209
SWIDTH 763 0
DWIDTH 13 0
BBX 15 14 0 0
BITMAP
03B0
0040
1C1E
0C08
0A08
0A08
1110
1110
1090
1090
2090
2060
2040
F020
ENDCHAR
STARTCHAR Ograve
ENCODING 210
SWIDTH 753 0
DWIDTH 13 0
BBX 11 15 2 0
BITMAP
0400
0200
0180
0F80
1040
2020
4020
4020
8020
8020
8040
8040
8080
6100
1E00
ENDCHAR
STARTCHAR Oacute
ENCODING 211
SWIDTH 753 0
DWIDTH 13 0
BBX 11 14 2 0
BITMAP
00C0
0300
0F80
1040
2020
4020
4020
8020
8020
8040
8040
8080
6100
1E00
ENDCHAR
STARTCHAR Ocircumflex
ENCODING 212
SWIDTH 753 0
DWIDTH 13 0
BBX 11 14 2 0
BITMAP
0100
06C0
0F80
1040
2020
4020
4020
8020
8020
8040
8040
8080
6100
1E00
ENDCHAR
STARTCHAR Otilde
ENCODING 213
SWIDTH 753 0
DWIDTH 13 0
BBX 11 14 2 0
BITMAP
0FA0
0040
0F00
10C0
2020
4020
4020
8020
8020
8040
8040
8080
6100
1E00
ENDCHAR
STARTCHAR Odieresis
ENCODING 214
SWIDTH 753 0
DWIDTH 13 0
BBX 11 14 2 0
BITMAP
0480
0000
0F00
10C0
2020
4020
4020
8020
8020
8040
8040
8080
6100
1E00
ENDCHAR
STARTCHAR multiply
ENCODING 215
SWIDTH 570 0
DWIDTH 9 0
BBX 7 8 2 0
BITMAP
82
44
28
10
10
28
44
82
ENDCHAR
STARTCHAR Oslash
ENCODING 216
SWIDTH 753 0
DWIDTH 13 0
BBX 11 12 2 0
BITMAP
0FA0
1040
20A0
4120
4220
8420
8820
9040
A040
C080
4100
BE00
ENDCHAR
STARTCHAR Ugrave
ENCODING 217
SWIDTH 794 0
DWIDTH 13 0
BBX 12 15 3 0
BITMAP
1000
1A00
0400
F1F0
4040
4040
4080
4080
8080
8080
8100
8100
8200
4600
3800
ENDCHAR
STARTCHAR Uacute
ENCODING 218
SWIDTH 794 0
DWIDTH 13 0
BBX 12 14 3 0
BITMAP
0380
0400
F1F0
4040
4040
4080
4080
8080
8080
8100
8100
8200
4600
3800
ENDCHAR
STARTCHAR Ucircumflex
ENCODING 219
SWIDTH 794 0
DWIDTH 13 0
BBX 12 14 3 0
BITMAP
0200
0D80
F9F0
4040
4040
4080
4080
8080
8080
8100
8100
8200
4600
3800
ENDCHAR
STARTCHAR Udieresis
ENCODING 220
SWIDTH 794 0
DWIDTH 13 0
BBX 12 14 3 0
BITMAP
0880
0000
F0F0
4040
4040
4040
4080
4080
8080
8080
8080
8100
4200
3C00
ENDCHAR
STARTCHAR Yacute
ENCODING 221
SWIDTH 591 0
DWIDTH 10 0
BBX 10 14 3 0
BITMAP
0300
0C00
E1C0
4100
4200
2200
2400
2800
1000
2000
2000
2000
2000
F800
ENDCHAR
STARTCHAR Thorn
ENCODING 222
SWIDTH 604 0
DWIDTH 10 0
BBX 9 12 1 0
BITMAP
3E00
0800
0800
0F00
1080
1080
1080
2100
1E00
2000
2000
F000
ENDCHAR
STARTCHAR germandbls
ENCODING 223
SWIDTH 577 0
DWIDTH 10 0
BBX 12 16 -1 -4
BITMAP
00E0
0310
0210
0420
1860
0980
0900
0880
08C0
1020
1220
11C0
1000
2000
A000
4000
ENDCHAR
STARTCHAR agrave
ENCODING 224
SWIDTH 561 0
DWIDTH 9 0
BBX 9 12 1 0
BITMAP
0800
0400
0200
0000
0F80
1100
2100
4100
8200
8600
9A80
6300
ENDCHAR
STARTCHAR aacute
ENCODING 225
SWIDTH 561 0
DWIDTH 9 0
BBX 9 12 1 0
BITMAP
0080
0100
0200
0000
0F80
1100
2100
4100
8200
8600
9A80
6300
ENDCHAR
STARTCHAR acircumflex
ENCODING 226
SWIDTH 561 0
DWIDTH 9 0
BBX 9 12 1 0
BITMAP
0200
0500
0880
0000
0F80
1100
2100
4100
8200
8600
9A80
6300
ENDCHAR
STARTCHAR atilde
ENCODING 227
SWIDTH 561 0
DWIDTH 9 0
BBX 9 12 1 0
BITMAP
0080
0F00
1000
0000
0F80
1100
2100
4100
8200
8600
9A80
6300
ENDCHAR
STARTCHAR adieresis
ENCODING 228
SWIDTH 561 0
DWIDTH 9 0
BBX 9 11 1 0
BITMAP
0900
0000
0000
0F00
1100
2100
4200
8200
8600
9A80
6300
ENDCHAR
STARTCHAR aring
ENCODING 229
SWIDTH 561 0
DWIDTH 9 0
BBX 9 13 1 0
BITMAP
0600
0900
0900
0600
0000
0F80
1100
2100
4100
8200
8600
9A80
6300
ENDCHAR
STARTCHAR ae
ENCODING 230
SWIDTH 779 0
DWIDTH 13 0
BBX 13 8 1 0
BITMAP
0F30
31C8
4188
4110
86E0
8A08
9210
61E0
ENDCHAR
STARTCHAR ccedilla
ENCODING 231
SWIDTH 441 0
DWIDTH 7 0
BBX 6 12 2 -4
BITMAP
18
24
44
80
80
84
88
70
40
40
20
C0
ENDCHAR
STARTCHAR egrave
ENCODING 232
SWIDTH 453 0
DWIDTH 8 0
BBX 6 12 2 0
BITMAP
40
20
18
00
18
24
44
98
60
84
88
70
ENDCHAR
STARTCHAR eacute
ENCODING 233
SWIDTH 453 0
DWIDTH 8 0
BBX 6 12 2 0
BITMAP
04
04
18
00
18
24
44
98
60
84
88
70
ENDCHAR
STARTCHAR ecircumflex
ENCODING 234
SWIDTH 453 0
DWIDTH 8 0
BBX 6 12 2 0
BITMAP
08
14
24
00
18
24
44
98
60
84
88
70
ENDCHAR
STARTCHAR edieresis
ENCODING 235
SWIDTH 453 0
DWIDTH 8 0
BBX 6 11 2 0
BITMAP
24
00
00
18
24
44
98
60
84
88
70
ENDCHAR
STARTCHAR igrave
ENCODING 236
SWIDTH 317 0
DWIDTH 5 0
BBX 3 12 2 0
BITMAP
80
40
20
00
A0
40
40
40
80
A0
A0
C0
ENDCHAR
STARTCHAR iacute
ENCODING 237
SWIDTH 317 0
DWIDTH 5 0
BBX 4 12 2 0
BITMAP
10
10
60
00
A0
40
40
40
80
A0
A0
C0
ENDCHAR
STARTCHAR icircumflex
ENCODING 238
SWIDTH 317 0
DWIDTH 5 0
BBX 5 12 2 0
BITMAP
20
50
88
00
A0
40
40
40
80
A0
A0
C0
ENDCHAR
STARTCHAR idieresis
ENCODING 239
SWIDTH 317 0
DWIDTH 5 0
BBX 5 11 2 0
BITMAP
88
00
00
90
60
40
40
80
A0
A0
C0
ENDCHAR
STARTCHAR eth
ENCODING 240
SWIDTH 537 0
DWIDTH 9 0
BBX 7 12 2 0
BITMAP
22
14
18
64
0C
32
42
82
82
84
88
70
ENDCHAR
STARTCHAR ntilde
ENCODING 241
SWIDTH 618 0
DWIDTH 10 0
BBX 8 12 2 0
BITMAP
01
1E
20
00
42
2D
29
32
24
45
45
C6
ENDCHAR
STARTCHAR ograve
ENCODING 242
SWIDTH 537 0
DWIDTH 9 0
BBX 7 12 2 0
BITMAP
20
10
0C
00
1C
22
42
82
82
84
8C
70
ENDCHAR
STARTCHAR oacute
ENCODING 243
SWIDTH 537 0
DWIDTH 9 0
BBX 7 12 2 0
BITMAP
02
04
18
00
1C
22
42
82
82
84
8C
70
ENDCHAR
STARTCHAR ocircumflex
ENCODING 244
SWIDTH 537 0
DWIDTH 9 0
BBX 7 12 2 0
BITMAP
04
1C
22
00
1C
22
42
82
82
84
8C
70
ENDCHAR
STARTCHAR otilde
ENCODING 245
SWIDTH 537 0
DWIDTH 9 0
BBX 7 12 2 0
BITMAP
02
1C
20
00
1C
22
42
82
82
84
8C
70
ENDCHAR
STARTCHAR odieresis
ENCODING 246
SWIDTH 537 0
DWIDTH 9 0
BBX 7 11 2 0
BITMAP
12
00
00
1C
22
42
82
82
84
CC
30
ENDCHAR
STARTCHAR divide
ENCODING 247
SWIDTH 570 0
DWIDTH 9 0
BBX 8 7 2 0
BITMAP
18
08
00
FF
00
18
08
ENDCHAR
STARTCHAR oslash
ENCODING 248
SWIDTH 537 0
DWIDTH 9 0
BBX 7 8 2 0
BITMAP
1E
22
4E
92
A2
C4
8C
F0
ENDCHAR
STARTCHAR ugrave
ENCODING 249
SWIDTH 618 0
DWIDTH 10 0
BBX 8 12 2 0
BITMAP
20
10
08
04
A1
42
42
42
84
8D
95
66
ENDCHAR
STARTCHAR uacute
ENCODING 250
SWIDTH 618 0
DWIDTH 10 0
BBX 8 12 2 0
BITMAP
02
02
0C
00
A1
42
42
42
84
8D
95
66
ENDCHAR
STARTCHAR ucircumflex
ENCODING 251
SWIDTH 618 0
DWIDTH 10 0
BBX 8 12 2 0
BITMAP
04
1C
22
00
A1
42
42
42
84
8D
95
66
ENDCHAR
STARTCHAR udieresis
ENCODING 252
SWIDTH 618 0
DWIDTH 10 0
BBX 8 11 2 0
BITMAP
11
00
00
A1
42
42
42
84
8D
95
66
ENDCHAR
STARTCHAR yacute
ENCODING 253
SWIDTH 468 0
DWIDTH 8 0
BBX 9 16 0 -4
BITMAP
0080
0100
0200
0400
3080
0880
0880
0900
0900
0A00
0A00
0C00
0800
0800
5000
E000
ENDCHAR
STARTCHAR thorn
ENCODING 254
SWIDTH 584 0
DWIDTH 10 0
BBX 9 16 1 -4
BITMAP
0800
3000
1000
1000
1300
1480
1880
1080
2100
2100
2200
5C00
4000
4000
4000
C000
ENDCHAR
STARTCHAR ydieresis
ENCODING 255
SWIDTH 468 0
DWIDTH 8 0
BBX 9 15 0 -4
BITMAP
0880
0000
0000
3080
0880
0880
0900
0900
0A00
0A00
0C00
0800
0800
5000
E000
ENDCHAR
STARTCHAR Amacron
ENCODING 256
SWIDTH 624 0
DWIDTH 10 0
BBX 11 14 0 0
BITMAP
0F80
0000
0080
0180
0280
0480
0480
0880
0F80
1080
1080
20C0
2080
F1E0
ENDCHAR
STARTCHAR amacron
ENCODING 257
SWIDTH 561 0
DWIDTH 9 0
BBX 9 10 1 0
BITMAP
1F00
0000
0F80
1100
2100
4100
8200
8600
9A80
6300
ENDCHAR
STARTCHAR Abreve
ENCODING 258
SWIDTH 624 0
DWIDTH 10 0
BBX 11 16 0 0
BITMAP
0880
0880
0700
0000
0080
0180
0280
0480
0480
0880
0F80
1080
1080
20C0
2080
F1E0
ENDCHAR
STARTCHAR abreve
ENCODING 259
SWIDTH 561 0
DWIDTH 9 0
BBX 9 12 1 0
BITMAP
1100
1100
0E00
0000
0F80
1100
2100
4100
8200
8600
9A80
6300
ENDCHAR
STARTCHAR Aogonek
ENCODING 260
SWIDTH 624 0
DWIDTH 10 0
BBX 11 16 0 -4
BITMAP
0080
0180
0280
0480
0480
0880
0F80
1080
1080
20C0
2080
F1E0
0200
0400
0400
0300
ENDCHAR
STARTCHAR aogonek
ENCODING 261
SWIDTH 561 0
DWIDTH 9 0
BBX 9 12 1 -4
BITMAP
0F80
1100
2100
4100
8200
8600
9A80
6300
0800
1000
1000
0C00
ENDCHAR
STARTCHAR Cacute
ENCODING 262
SWIDTH 661 0
DWIDTH 11 0
BBX 11 16 2 0
BITMAP
0080
0100
0600
0000
0F00
30E0
4040
4040
4000
8000
8000
8000
8080
8100
4100
3E00
ENDCHAR
STARTCHAR cacute
ENCODING 263
SWIDTH 441 0
DWIDTH 7 0
BBX 6 12 2 0
BITMAP
04
08
30
00
18
24
44
80
80
84
88
70
ENDCHAR
STARTCHAR Ccircumflex
ENCODING 264
SWIDTH 661 0
DWIDTH 11 0
BBX 11 16 2 0
BITMAP
0400
0A00
1100
0000
0F00
30E0
4040
4040
4000
8000
8000
8000
8080
8100
4100
3E00
ENDCHAR
STARTCHAR ccircumflex
ENCODING 265
SWIDTH 441 0
DWIDTH 7 0
BBX 6 12 2 0
BITMAP
10
28
44
00
18
24
44
80
80
84
88
70
ENDCHAR
STARTCHAR Cdotaccent
ENCODING 266
SWIDTH 661 0
DWIDTH 11 0
BBX 11 14 2 0
BITMAP
0400
0000
0F00
30E0
4040
4040
4000
8000
8000
8000
8080
8100
4100
3E00
ENDCHAR
STARTCHAR cdotaccent
ENCODING 267
SWIDTH 441 0
DWIDTH 7 0
BBX 6 10 2 0
BITMAP
10
00
18
24
44
80
80
84
88
70
ENDCHAR
STARTCHAR Ccaron
ENCODING 268
SWIDTH 661 0
DWIDTH 11 0
BBX 11 16 2 0
BITMAP
1100
0A00
0400
0000
0F00
30E0
4040
4040
4000
8000
8000
8000
8080
8100
4100
3E00
ENDCHAR
STARTCHAR ccaron
ENCODING 269
SWIDTH 441 0
DWIDTH 7 0
BBX 6 12 2 0
BITMAP
44
28
10
00
18
24
44
80
80
84
88
70
ENDCHAR
STARTCHAR Dcaron
ENCODING 270
SWIDTH 763 0
DWIDTH 13 0
BBX 12 16 1 0
BITMAP
0880
0500
0200
0000
1F80
0860
0810
0810
0810
1010
1010
1020
1020
2060
2080
FF00
ENDCHAR
STARTCHAR dcaron
ENCODING 271
SWIDTH 774 0
DWIDTH 14 0
BBX 13 12 2 0
BITMAP
0190
0318
0110
0120
1E00
2200
4200
4200
8400
8C00
9500
6600
ENDCHAR
STARTCHAR Dcroat
ENCODING 272
SWIDTH 770 0
DWIDTH 13 0
BBX 12 12 1 0
BITMAP
1F80
0860
0820
0810
0810
1010
7E10
1010
1020
2020
20C0
FF00
ENDCHAR
STARTCHAR dcroat
ENCODING 273
SWIDTH 587 0
DWIDTH 10 0
BBX 10 12 2 0
BITMAP
0180
0300
1FC0
0100
1E00
2200
4200
4200
8400
8C00
9500
6600
ENDCHAR
STARTCHAR Emacron
ENCODING 274
SWIDTH 596 0
DWIDTH 10 0
BBX 11 14 1 0
BITMAP
0F80
0000
1FE0
0840
0840
0800
0800
0880
1F00
1100
2000
2080
2080
FF00
ENDCHAR
STARTCHAR emacron
ENCODING 275
SWIDTH 453 0
DWIDTH 8 0
BBX 6 10 2 0
BITMAP
7C
00
18
24
44
98
60
84
88
70
ENDCHAR
STARTCHAR Ebreve
ENCODING 276
SWIDTH 596 0
DWIDTH 10 0
BBX 11 16 1 0
BITMAP
0880
0880
0700
0000
1FE0
0840
0840
0800
0800
0880
1F00
1100
2000
2080
2080
FF00
ENDCHAR
STARTCHAR ebreve
ENCODING 277
SWIDTH 453 0
DWIDTH 8 0
BBX 6 12 2 0
BITMAP
44
44
38
00
18
24
44
98
60
84
88
70
ENDCHAR
STARTCHAR Edotaccent
ENCODING 278
SWIDTH 596 0
DWIDTH 10 0
BBX 11 14 1 0
BITMAP
0200
0000
1FE0
0840
0840
0800
0800
0880
1F00
1100
2000
2080
2080
FF00
ENDCHAR
STARTCHAR edotaccent
ENCODING 279
SWIDTH 453 0
DWIDTH 8 0
BBX 6 10 2 0
BITMAP
10
00
18
24
44
98
60
84
88
70
ENDCHAR
STARTCHAR Eogonek
ENCODING 280
SWIDTH 596 0
DWIDTH 10 0
BBX 11 16 1 -4
BITMAP
1FE0
0840
0840
0800
0800
0880
1F00
1100
2000
2080
2080
FF00
0400
0800
0800
0600
ENDCHAR
STARTCHAR eogonek
ENCODING 281
SWIDTH 453 0
DWIDTH 8 0
BBX 6 12 2 -4
BITMAP
18
24
44
98
60
84
88
70
10
20
20
18
ENDCHAR
STARTCHAR Ecaron
ENCODING 282
SWIDTH 596 0
DWIDTH 10 0
BBX 11 16 1 0
BITMAP
0880
0500
0200
0000
1FE0
0840
0840
0800
0800
0880
1F00
1100
2000
2080
2080
FF00
ENDCHAR
STARTCHAR ecaron
ENCODING 283
SWIDTH 453 0
DWIDTH 8 0
BBX 6 12 2 0
BITMAP
44
28
10
00
18
24
44
98
60
84
88
70
ENDCHAR
STARTCHAR Gcircumflex
ENCODING 284
SWIDTH 709 0
DWIDTH 12 0
BBX 11 16 2 0
BITMAP
0200
0500
0880
0000
0F80
1060
2040
4040
4000
8000
8000
83E0
8080
8080
6180
1E00
ENDCHAR
STARTCHAR gcircumflex
ENCODING 285
SWIDTH 499 0
DWIDTH 8 0
BBX 9 16 1 -4
BITMAP
0800
1400
2200
0000
1D80
2200
4200
4400
3800
4000
3000
4C00
8200
8200
4400
3800
ENDCHAR
STARTCHAR Gbreve
ENCODING 286
SWIDTH 709 0
DWIDTH 12 0
BBX 11 16 2 0
BITMAP
0880
0880
0700
0000
0F80
1060
2040
4040
4000
8000
8000
83E0
8080
8080
6180
1E00
ENDCHAR
STARTCHAR gbreve
ENCODING 287
SWIDTH 499 0
DWIDTH 8 0
BBX 9 16 1 -4
BITMAP
2200
2200
1C00
0000
1D80
2200
4200
4400
3800
4000
3000
4C00
8200
8200
4400
3800
ENDCHAR
STARTCHAR Gdotaccent
ENCODING 288
SWIDTH 709 0
DWIDTH 12 0
BBX 11 14 2 0
BITMAP
0200
0000
0F80
1060
2040
4040
4000
8000
8000
83E0
8080
8080
6180
1E00
ENDCHAR
STARTCHAR gdotaccent
ENCODING 289
SWIDTH 499 0
DWIDTH 8 0
BBX 9 14 1 -4
BITMAP
0800
0000
1D80
2200
4200
4400
3800
4000
3000
4C00
8200
8200
4400
3800
ENDCHAR
STARTCHAR Gcommaaccent
ENCODING 290
SWIDTH 709 0
DWIDTH 12 0
BBX 11 18 2 -6
BITMAP
0F80
1060
2040
4040
4000
8000
8000
83E0
8080
8080
6180
1E00
0000
0400
0400
0400
0800
0800
ENDCHAR
STARTCHAR gcommaaccent
ENCODING 291
SWIDTH 499 0
DWIDTH 8 0
BBX 9 17 1 -4
BITMAP
0400
0800
1800
0800
0000
1D80
2200
4200
4400
3800
4000
3000
4C00
8200
8200
4400
3800
ENDCHAR
STARTCHAR Hcircumflex
ENCODING 292
SWIDTH 775 0
DWIDTH 13 0
BBX 14 16 1 0
BITMAP
0100
0280
0440
0000
3E7C
0810
0810
0810
1020
1020
1FE0
1020
2040
2040
2040
F9F0
ENDCHAR
STARTCHAR hcircumflex
ENCODING 293
SWIDTH 607 0
DWIDTH 10 0
BBX 8 16 2 0
BITMAP
10
28
44
00
18
70
10
10
22
2D
31
32
64
45
45
C6
ENDCHAR
STARTCHAR Hbar
ENCODING 294
SWIDTH 775 0
DWIDTH 13 0
BBX 14 12 1 0
BITMAP
3E7C
0810
0810
FFFC
1020
1020
1FE0
1020
2040
2040
2040
F9F0
ENDCHAR
STARTCHAR hbar
ENCODING 295
SWIDTH 607 0
DWIDTH 10 0
BBX 9 12 1 0
BITMAP
0C00
3800
FE00
0800
1100
1680
1880
1900
3200
2280
2280
6300
ENDCHAR
STARTCHAR Itilde
ENCODING 296
SWIDTH 345 0
DWIDTH 6 0
BBX 7 15 1 0
BITMAP
32
4C
00
3E
08
08
08
10
10
10
10
20
20
20
F8
ENDCHAR
STARTCHAR itilde
ENCODING 297
SWIDTH 317 0
DWIDTH 5 0
BBX 6 11 1 0
BITMAP
64
98
00
50
20
20
20
40
50
50
60
ENDCHAR
STARTCHAR Imacron
ENCODING 298
SWIDTH 345 0
DWIDTH 6 0
BBX 7 14 1 0
BITMAP
3E
00
3E
08
08
08
10
10
10
10
20
20
20
F8
ENDCHAR
STARTCHAR imacron
ENCODING 299
SWIDTH 317 0
DWIDTH 5 0
BBX 5 10 1 0
BITMAP
F8
00
50
20
20
20
40
50
50
60
ENDCHAR
STARTCHAR Ibreve
ENCODING 300
SWIDTH 345 0
DWIDTH 6 0
BBX 7 16 1 0
BITMAP
22
22
1C
00
3E
08
08
08
10
10
10
10
20
20
20
F8
ENDCHAR
STARTCHAR ibreve
ENCODING 301
SWIDTH 317 0
DWIDTH 5 0
BBX 5 12 1 0
BITMAP
88
88
70
00
50
20
20
20
40
50
50
60
ENDCHAR
STARTCHAR Iogonek
ENCODING 302
SWIDTH 345 0
DWIDTH 6 0
BBX 7 16 1 -4
BITMAP
3E
08
08
08
10
10
10
10
20
20
20
F8
10
20
20
18
ENDCHAR
STARTCHAR iogonek
ENCODING 303
SWIDTH 317 0
DWIDTH 5 0
BBX 4 16 2 -4
BITMAP
10
20
00
00
A0
40
40
40
80
A0
A0
C0
40
80
80
60
ENDCHAR
STARTCHAR Idotaccent
ENCODING 304
SWIDTH 345 0
DWIDTH 6 0
BBX 7 14 1 0
BITMAP
08
00
3E
08
08
08
10
10
10
10
20
20
20
F8
ENDCHAR
STARTCHAR dotlessi
ENCODING 305
SWIDTH 317 0
DWIDTH 5 0
BBX 3 8 2 0
BITMAP
A0
40
40
40
80
A0
A0
C0
ENDCHAR
STARTCHAR IJ
ENCODING 306
SWIDTH 680 0
DWIDTH 12 0
BBX 13 14 1 -2
BITMAP
3EF8
0820
0820
0840
1040
1040
1040
1080
2080
2080
2080
F900
0200
0C00
ENDCHAR
STARTCHAR ij
ENCODING 307
SWIDTH 610 0
DWIDTH 10 0
BBX 9 16 2 -4
BITMAP
1180
2100
0000
0000
A700
4100
4100
4200
8200
A200
A200
C400
0400
0400
2800
1000
ENDCHAR
STARTCHAR Jcircumflex
ENCODING 308
SWIDTH 352 0
DWIDTH 6 0
BBX 9 18 -1 -2
BITMAP
0400
0A00
1100
0000
0F80
0200
0200
0400
0400
0400
0400
0800
0800
0800
0800
1000
2000
C000
ENDCHAR
STARTCHAR jcircumflex
ENCODING 309
SWIDTH 309 0
DWIDTH 5 0
BBX 7 16 -1 -4
BITMAP
08
14
22
00
1C
04
04
08
08
08
08
10
10
10
A0
40
ENDCHAR
STARTCHAR Kcommaaccent
ENCODING 310
SWIDTH 650 0
DWIDTH 11 0
BBX 12 18 1 -6
BITMAP
3CF0
0840
0880
1300
1400
1800
1400
1400
2200
2200
2100
F8C0
0000
0400
0400
0400
0800
0800
ENDCHAR
STARTCHAR kcommaaccent
ENCODING 311
SWIDTH 545 0
DWIDTH 9 0
BBX 8 18 2 -6
BITMAP
10
70
10
20
27
28
28
48
50
49
4A
84
00
10
10
10
20
20
ENDCHAR
STARTCHAR kgreenlandic
ENCODING 312
SWIDTH 545 0
DWIDTH 9 0
BBX 8 8 2 0
BITMAP
27
28
28
48
50
49
4A
84
ENDCHAR
STARTCHAR Lacute
ENCODING 313
SWIDTH 565 0
DWIDTH 9 0
BBX 9 16 1 0
BITMAP
0200
0400
1800
0000
3E00
0800
0800
1000
1000
1000
1000
1000
2000
2080
2100
FF00
ENDCHAR
STARTCHAR lacute
ENCODING 314
SWIDTH 306 0
DWIDTH 5 0
BBX 5 16 2 0
BITMAP
08
10
60
00
30
60
20
20
40
40
40
40
80
A0
A0
C0
ENDCHAR
STARTCHAR Lcommaaccent
ENCODING 315
SWIDTH 565 0
DWIDTH 9 0
BBX 9 18 1 -6
BITMAP
3E00
0800
0800
1000
1000
1000
1000
1000
2000
2080
2100
FF00
0000
0800
0800
0800
1000
1000
ENDCHAR
STARTCHAR lcommaaccent
ENCODING 316
SWIDTH 306 0
DWIDTH 5 0
BBX 4 18 2 -6
BITMAP
30
60
20
20
40
40
40
40
80
A0
A0
C0
00
40
40
40
80
80
ENDCHAR
STARTCHAR Lcaron
ENCODING 317
SWIDTH 753 0
DWIDTH 13 0
BBX 13 12 1 0
BITMAP
3E10
0818
0810
1020
1000
1000
1000
1000
2000
2080
2100
FF00
ENDCHAR
STARTCHAR lcaron
ENCODING 318
SWIDTH 507 0
DWIDTH 9 0
BBX 8 12 2 0
BITMAP
32
63
22
24
40
40
40
40
80
A0
A0
C0
ENDCHAR
STARTCHAR Ldot
ENCODING 319
SWIDTH 802 0
DWIDTH 13 0
BBX 12 12 1 0
BITMAP
3E00
0800
0800
1000
1000
1000
1000
1010
2020
2080
2100
FF00
ENDCHAR
STARTCHAR ldot
ENCODING 320
SWIDTH 556 0
DWIDTH 9 0
BBX 7 12 2 0
BITMAP
30
60
20
20
40
40
40
42
84
A0
A0
C0
ENDCHAR
STARTCHAR Lslash
ENCODING 321
SWIDTH 571 0
DWIDTH 10 0
BBX 9 12 1 0
BITMAP
3E00
0800
0800
0800
1200
1C00
1000
6000
2000
2080
2100
FF00
ENDCHAR
STARTCHAR lslash
ENCODING 322
SWIDTH 318 0
DWIDTH 5 0
BBX 5 12 1 0
BITMAP
18
30
10
10
20
38
E0
20
40
50
50
60
ENDCHAR
STARTCHAR Nacute
ENCODING 323
SWIDTH 763 0
DWIDTH 13 0
BBX 15 16 0 0
BITMAP
0020
0040
0180
0000
1C1E
0C08
0A08
0A08
1110
1110
1090
1090
2090
2060
2040
F020
ENDCHAR
STARTCHAR nacute
ENCODING 324
SWIDTH 618 0
DWIDTH 10 0
BBX 8 12 2 0
BITMAP
02
04
18
00
42
2D
29
32
24
45
45
C6
ENDCHAR
STARTCHAR Ncommaaccent
ENCODING 325
SWIDTH 763 0
DWIDTH 13 0
BBX 15 18 0 -6
BITMAP
1C1E
0C08
0A08
0A08
1110
1110
1090
1090
2090
2060
2040
F020
0000
0200
0200
0200
0400
0400
ENDCHAR
STARTCHAR ncommaaccent
ENCODING 326
SWIDTH 618 0
DWIDTH 10 0
BBX 8 14 2 -6
BITMAP
42
2D
29
32
24
45
45
C6
00
08
08
08
10
10
ENDCHAR
STARTCHAR Ncaron
ENCODING 327
SWIDTH 763 0
DWIDTH 13 0
BBX 15 16 0 0
BITMAP
0220
0140
0080
0000
1C1E
0C08
0A08
0A08
1110
1110
1090
1090
2090
2060
2040
F020
ENDCHAR
STARTCHAR ncaron
ENCODING 328
SWIDTH 618 0
DWIDTH 10 0
BBX 8 12 2 0
BITMAP
22
14
08
00
42
2D
29
32
24
45
45
C6
ENDCHAR
STARTCHAR napostrophe
ENCODING 329
SWIDTH 823 0
DWIDTH 14 0
BBX 12 12 2 0
BITMAP
4000
6000
4000
8000
0420
02D0
0290
0320
0240
0450
0450
0C60
ENDCHAR
STARTCHAR Eng
ENCODING 330
SWIDTH 763 0
DWIDTH 13 0
BBX 15 16 0 -4
BITMAP
1C1E
0C08
0A08
0A08
1110
1110
1090
1090
2090
2070
2050
F020
0020
0020
0140
0080
ENDCHAR
STARTCHAR eng
ENCODING 331
SWIDTH 618 0
DWIDTH 10 0
BBX 8 12 2 -4
BITMAP
42
2D
29
32
24
44
44
C8
08
08
50
20
ENDCHAR
STARTCHAR Omacron
ENCODING 332
SWIDTH 753 0
DWIDTH 13 0
BBX 11 14 2 0
BITMAP
0F80
0000
0F80
1040
2020
4020
4020
8020
8020
8040
8040
8080
6100
1E00
ENDCHAR
STARTCHAR omacron
ENCODING 333
SWIDTH 537 0
DWIDTH 9 0
BBX 7 10 2 0
BITMAP
3E
00
1C
22
42
82
82
84
8C
70
ENDCHAR
STARTCHAR Obreve
ENCODING 334
SWIDTH 753 0
DWIDTH 13 0
BBX 11 16 2 0
BITMAP
0880
0880
0700
0000
0F80
1040
2020
4020
4020
8020
8020
8040
8040
8080
6100
1E00
ENDCHAR
STARTCHAR obreve
ENCODING 335
SWIDTH 537 0
DWIDTH 9 0
BBX 7 12 2 0
BITMAP
22
22
1C
00
1C
22
42
82
82
84
8C
70
ENDCHAR
STARTCHAR Ohungarumlaut
ENCODING 336
SWIDTH 753 0
DWIDTH 13 0
BBX 11 16 2 0
BITMAP
0480
0500
0900
0000
0F80
1040
2020
4020
4020
8020
8020
8040
8040
8080
6100
1E00
ENDCHAR
STARTCHAR ohungarumlaut
ENCODING 337
SWIDTH 537 0
DWIDTH 9 0
BBX 7 12 2 0
BITMAP
12
14
24
00
1C
22
42
82
82
84
8C
70
ENDCHAR
STARTCHAR OE
ENCODING 338
SWIDTH 1020 0
DWIDTH 17 0
BBX 17 12 2 0
BITMAP
07FF80
182100
202100
402000
402200
802400
807C00
804400
804000
808200
608400
1FFC00
ENDCHAR
STARTCHAR oe
ENCODING 339
SWIDTH 806 0
DWIDTH 13 0
BBX 12 8 2 0
BITMAP
1C60
2290
4310
8260
8380
8410
8A20
71C0
ENDCHAR
STARTCHAR Racute
ENCODING 340
SWIDTH 640 0
DWIDTH 11 0
BBX 10 16 1 0
BITMAP
0100
0200
0C00
0000
3F00
08C0
0840
0840
1040
1180
1E00
2100
2100
2100
2100
F0C0
ENDCHAR
STARTCHAR racute
ENCODING 341
SWIDTH 402 0
DWIDTH 7 0
BBX 6 12 2 0
BITMAP
04
08
30
00
8C
50
60
40
40
40
80
80
ENDCHAR
STARTCHAR Rcommaaccent
ENCODING 342
SWIDTH 640 0
DWIDTH 11 0
BBX 10 18 1 -6
BITMAP
3F00
08C0
0840
0840
1040
1180
1E00
2100
2100
2100
2100
F0C0
0000
0800
0800
0800
1000
1000
ENDCHAR
STARTCHAR rcommaaccent
ENCODING 343
SWIDTH 402 0
DWIDTH 7 0
BBX 6 14 2 -6
BITMAP
8C
50
60
40
40
40
80
80
00
40
40
40
80
80
ENDCHAR
STARTCHAR Rcaron
ENCODING 344
SWIDTH 640 0
DWIDTH 11 0
BBX 10 16 1 0
BITMAP
1100
0A00
0400
0000
3F00
08C0
0840
0840
1040
1180
1E00
2100
2100
2100
2100
F0C0
ENDCHAR
STARTCHAR rcaron
ENCODING 345
SWIDTH 402 0
DWIDTH 7 0
BBX 6 12 2 0
BITMAP
88
50
20
00
8C
50
60
40
40
40
80
80
ENDCHAR
STARTCHAR Sacute
ENCODING 346
SWIDTH 533 0
DWIDTH 9 0
BBX 9 16 1 0
BITMAP
0100
0200
0C00
0000
0E00
1180
2100
2000
1000
0C00
0600
0100
8100
8100
4200
3C00
ENDCHAR
STARTCHAR sacute
ENCODING 347
SWIDTH 389 0
DWIDTH 6 0
BBX 6 12 1 0
BITMAP
04
08
30
00
38
44
40
20
10
88
88
70
ENDCHAR
STARTCHAR Scircumflex
ENCODING 348
SWIDTH 533 0
DWIDTH 9 0
BBX 9 16 1 0
BITMAP
0400
0A00
1100
0000
0E00
1180
2100
2000
1000
0C00
0600
0100
8100
8100
4200
3C00
ENDCHAR
STARTCHAR scircumflex
ENCODING 349
SWIDTH 389 0
DWIDTH 6 0
BBX 6 12 1 0
BITMAP
10
28
44
00
38
44
40
20
10
88
88
70
ENDCHAR
STARTCHAR Scedilla
ENCODING 350
SWIDTH 533 0
DWIDTH 9 0
BBX 9 16 1 -4
BITMAP
0E00
1180
2100
2000
1000
0C00
0600
0100
8100
8100
4200
3C00
0800
0800
0400
1800
ENDCHAR
STARTCHAR scedilla
ENCODING 351
SWIDTH 389 0
DWIDTH 6 0
BBX 6 12 1 -4
BITMAP
38
44
40
20
10
88
88
70
20
20
10
60
ENDCHAR
STARTCHAR Scaron
ENCODING 352
SWIDTH 533 0
DWIDTH 9 0
BBX 9 15 1 0
BITMAP
1000
0F80
0000
0E00
1180
2100
2000
1000
0C00
0600
0100
8100
8100
4200
3C00
ENDCHAR
STARTCHAR scaron
ENCODING 353
SWIDTH 389 0
DWIDTH 6 0
BBX 7 12 1 0
BITMAP
02
34
08
00
38
44
40
20
10
88
88
70
ENDCHAR
STARTCHAR Tcommaaccent
ENCODING 354
SWIDTH 606 0
DWIDTH 10 0
BBX 11 16 2 -4
BITMAP
7FE0
8440
8840
0800
0800
0800
1000
1000
1000
1000
1000
FC00
1000
1000
0800
3000
ENDCHAR
STARTCHAR tcommaaccent
ENCODING 355
SWIDTH 341 0
DWIDTH 6 0
BBX 5 14 2 -4
BITMAP
20
20
F8
40
40
40
80
A0
A0
C0
40
40
20
C0
ENDCHAR
STARTCHAR Tcaron
ENCODING 356
SWIDTH 606 0
DWIDTH 10 0
BBX 11 16 2 0
BITMAP
1100
0A00
0400
0000
7FE0
8440
8840
0800
0800
0800
1000
1000
1000
1000
1000
FC00
ENDCHAR
STARTCHAR tcaron
ENCODING 357
SWIDTH 540 0
DWIDTH 10 0
BBX 9 12 2 0
BITMAP
0100
0180
2100
2200
F800
4000
4000
4000
8000
A000
A000
C000
ENDCHAR
STARTCHAR Tbar
ENCODING 358
SWIDTH 606 0
DWIDTH 10 0
BBX 11 12 2 0
BITMAP
7FE0
8440
8840
0800
0800
3F80
1000
1000
1000
1000
1000
FC00
ENDCHAR
STARTCHAR tbar
ENCODING 359
SWIDTH 341 0
DWIDTH 6 0
BBX 7 10 1 0
BITMAP
10
10
7C
20
20
FE
40
50
50
60
ENDCHAR
STARTCHAR Utilde
ENCODING 360
SWIDTH 794 0
DWIDTH 13 0
BBX 12 15 3 0
BITMAP
0C80
1300
0000
F1F0
4040
4040
4080
4080
8080
8080
8100
8100
8200
4600
3800
ENDCHAR
STARTCHAR utilde
ENCODING 361
SWIDTH 618 0
DWIDTH 10 0
BBX 8 11 2 0
BITMAP
32
4C
00
A1
42
42
42
84
8D
95
66
ENDCHAR
STARTCHAR Umacron
ENCODING 362
SWIDTH 794 0
DWIDTH 13 0
BBX 12 14 3 0
BITMAP
1F00
0000
F1F0
4040
4040
4080
4080
8080
8080
8100
8100
8200
4600
3800
ENDCHAR
STARTCHAR umacron
ENCODING 363
SWIDTH 618 0
DWIDTH 10 0
BBX 8 10 2 0
BITMAP
7C
00
A1
42
42
42
84
8D
95
66
ENDCHAR
STARTCHAR Ubreve
ENCODING 364
SWIDTH 794 0
DWIDTH 13 0
BBX 12 16 3 0
BITMAP
1100
1100
0E00
0000
F1F0
4040
4040
4080
4080
8080
8080
8100
8100
8200
4600
3800
ENDCHAR
STARTCHAR ubreve
ENCODING 365
SWIDTH 618 0
DWIDTH 10 0
BBX 8 12 2 0
BITMAP
44
44
38
00
A1
42
42
42
84
8D
95
66
ENDCHAR
STARTCHAR Uring
ENCODING 366
SWIDTH 794 0
DWIDTH 13 0
BBX 12 17 3 0
BITMAP
0400
0A00
0A00
0400
0000
F1F0
4040
4040
4080
4080
8080
8080
8100
8100
8200
4600
3800
ENDCHAR
STARTCHAR uring
ENCODING 367
SWIDTH 618 0
DWIDTH 10 0
BBX 8 13 2 0
BITMAP
10
28
28
10
00
A1
42
42
42
84
8D
95
66
ENDCHAR
STARTCHAR Uhungarumlaut
ENCODING 368
SWIDTH 794 0
DWIDTH 13 0
BBX 12 16 3 0
BITMAP
0480
0500
0900
0000
F1F0
4040
4040
4080
4080
8080
8080
8100
8100
8200
4600
3800
ENDCHAR
STARTCHAR uhungarumlaut
ENCODING 369
SWIDTH 618 0
DWIDTH 10 0
BBX 8 12 2 0
BITMAP
12
14
24
00
A1
42
42
42
84
8D
95
66
ENDCHAR
STARTCHAR Uogonek
ENCODING 370
SWIDTH 794 0
DWIDTH 13 0
BBX 12 16 3 -4
BITMAP
F1F0
4040
4040
4080
4080
8080
8080
8100
8100
8200
4600
3800
0800
1000
1000
0C00
ENDCHAR
STARTCHAR uogonek
ENCODING 371
SWIDTH 618 0
DWIDTH 10 0
BBX 8 12 2 -4
BITMAP
A1
42
42
42
84
8D
95
66
08
10
10
0C
ENDCHAR
STARTCHAR Wcircumflex
ENCODING 372
SWIDTH 946 0
DWIDTH 16 0
BBX 16 16 2 0
BITMAP
0100
0280
0440
0000
F00F
2082
6184
6284
2288
2288
2490
2490
28A0
28A0
30C0
2080
ENDCHAR
STARTCHAR wcircumflex
ENCODING 373
SWIDTH 785 0
DWIDTH 13 0
BBX 12 12 2 0
BITMAP
0200
0500
0880
0000
C310
4210
4210
4410
8420
8C40
B480
4300
ENDCHAR
STARTCHAR Ycircumflex
ENCODING 374
SWIDTH 591 0
DWIDTH 10 0
BBX 10 16 3 0
BITMAP
0800
1400
2200
0000
E3C0
4100
4200
2200
2400
2800
1000
2000
2000
2000
2000
F800
ENDCHAR
STARTCHAR ycircumflex
ENCODING 375
SWIDTH 468 0
DWIDTH 8 0
BBX 9 16 0 -4
BITMAP
0400
0A00
1100
0000
3080
0880
0880
0900
0900
0A00
0A00
0C00
0800
0800
5000
E000
ENDCHAR
STARTCHAR Ydieresis
ENCODING 376
SWIDTH 591 0
DWIDTH 10 0
BBX 11 14 2 0
BITMAP
1100
0000
F1E0
2080
2100
1100
1200
1400
0800
1000
1000
1000
1000
7C00
ENDCHAR
STARTCHAR Zacute
ENCODING 377
SWIDTH 622 0
DWIDTH 10 0
BBX 12 16 0 0
BITMAP
0040
0080
0300
0000
0FF0
1020
1040
0080
0100
0200
0600
0800
1000
2040
4040
FF80
ENDCHAR
STARTCHAR zacute
ENCODING 378
SWIDTH 468 0
DWIDTH 8 0
BBX 8 12 1 0
BITMAP
02
04
18
00
3F
42
04
08
10
21
62
9C
ENDCHAR
STARTCHAR Zdotaccent
ENCODING 379
SWIDTH 622 0
DWIDTH 10 0
BBX 12 14 0 0
BITMAP
0100
0000
0FF0
1020
1040
0080
0100
0200
0600
0800
1000
2040
4040
FF80
ENDCHAR
STARTCHAR zdotaccent
ENCODING 380
SWIDTH 468 0
DWIDTH 8 0
BBX 8 10 1 0
BITMAP
08
00
3F
42
04
08
10
21
62
9C
ENDCHAR
STARTCHAR Zcaron
ENCODING 381
SWIDTH 622 0
DWIDTH 10 0
BBX 12 14 0 0
BITMAP
03E0
0000
0FF0
1020
1040
0080
0100
0200
0600
0800
1000
2040
4040
FF80
ENDCHAR
STARTCHAR zcaron
ENCODING 382
SWIDTH 468 0
DWIDTH 8 0
BBX 8 12 1 0
BITMAP
01
12
0C
00
3F
42
04
08
10
21
62
9C
ENDCHAR
STARTCHAR uni0186
ENCODING 390
SWIDTH 661 0
DWIDTH 11 0
BBX 11 12 2 0
BITMAP
0F80
1040
1020
2020
0020
0020
0020
0040
4040
4040
E180
1E00
ENDCHAR
STARTCHAR uni0189
ENCODING 393
SWIDTH 770 0
DWIDTH 13 0
BBX 12 12 1 0
BITMAP
1F80
0860
0820
0810
0810
1010
7E10
1010
1020
2020
20C0
FF00
ENDCHAR
STARTCHAR uni018E
ENCODING 398
SWIDTH 596 0
DWIDTH 10 0
BBX 11 12 1 0
BITMAP
1FE0
2080
2080
0080
1100
1F00
2200
0200
0200
4200
4200
FF00
ENDCHAR
STARTCHAR florin
ENCODING 402
SWIDTH 530 0
DWIDTH 9 0
BBX 10 14 1 -2
BITMAP
0180
0240
0400
0400
0400
1F00
0800
0800
0800
1000
1000
1000
9000
6000
ENDCHAR
STARTCHAR uni0197
ENCODING 407
SWIDTH 345 0
DWIDTH 6 0
BBX 7 12 1 0
BITMAP
3E
08
08
08
10
FE
10
10
20
20
20
F8
ENDCHAR
STARTCHAR uni019A
ENCODING 410
SWIDTH 306 0
DWIDTH 5 0
BBX 7 12 1 0
BITMAP
18
30
10
10
20
FE
20
20
40
50
50
60
ENDCHAR
STARTCHAR uni019D
ENCODING 413
SWIDTH 763 0
DWIDTH 13 0
BBX 17 16 -2 -4
BITMAP
070780
030200
028200
028200
044400
044400
042400
042400
082400
081800
081000
100800
100000
100000
A00000
400000
ENDCHAR
STARTCHAR uni019F
ENCODING 415
SWIDTH 753 0
DWIDTH 13 0
BBX 11 12 2 0
BITMAP
0F80
1040
2020
4020
4020
FFE0
8020
8040
8040
8080
6100
1E00
ENDCHAR
STARTCHAR Ohorn
ENCODING 416
SWIDTH 753 0
DWIDTH 13 0
BBX 13 12 2 0
BITMAP
0F90
1058
2030
4020
4020
8020
8020
8040
8040
8080
6100
1E00
ENDCHAR
STARTCHAR ohorn
ENCODING 417
SWIDTH 537 0
DWIDTH 9 0
BBX 10 8 2 0
BITMAP
1C80
22C0
4280
8300
8200
8400
8C00
7000
ENDCHAR
STARTCHAR Uhorn
ENCODING 431
SWIDTH 794 0
DWIDTH 13 0
BBX 14 12 3 0
BITMAP
F1F8
404C
4048
4090
4080
8080
8080
8100
8100
8200
4600
3800
ENDCHAR
STARTCHAR uhorn
ENCODING 432
SWIDTH 618 0
DWIDTH 10 0
BBX 11 8 2 0
BITMAP
A140
4260
4240
4280
8400
8D00
9500
6600
ENDCHAR
STARTCHAR uni01B5
ENCODING 437
SWIDTH 622 0
DWIDTH 10 0
BBX 12 12 0 0
BITMAP
0FF0
1020
1040
0080
0100
1FC0
0600
0800
1000
2040
4040
FF80
ENDCHAR
STARTCHAR uni01B6
ENCODING 438
SWIDTH 468 0
DWIDTH 8 0
BBX 8 8 1 0
BITMAP
3F
42
04
7F
10
21
62
9C
ENDCHAR
STARTCHAR uni01BB
ENCODING 443
SWIDTH 530 0
DWIDTH 9 0
BBX 8 11 1 0
BITMAP
0E
11
21
01
01
FF
08
10
20
41
FE
ENDCHAR
STARTCHAR uni01BC
ENCODING 444
SWIDTH 530 0
DWIDTH 9 0
BBX 9 11 1 0
BITMAP
1F80
2000
2000
2000
3E00
4100
0100
0100
8100
C600
3800
ENDCHAR
STARTCHAR uni01C0
ENCODING 448
SWIDTH 270 0
DWIDTH 4 0
BBX 1 12 3 0
BITMAP
80
80
80
80
80
80
80
80
80
80
80
80
ENDCHAR
STARTCHAR uni01C2
ENCODING 450
SWIDTH 570 0
DWIDTH 9 0
BBX 8 12 2 -2
BITMAP
08
08
08
08
FF
08
08
FF
08
08
08
08
ENDCHAR
STARTCHAR uni01C3
ENCODING 451
SWIDTH 240 0
DWIDTH 4 0
BBX 4 12 1 0
BITMAP
10
20
20
20
20
40
40
40
00
00
40
80
ENDCHAR
STARTCHAR uni01CD
ENCODING 461
SWIDTH 624 0
DWIDTH 10 0
BBX 11 16 0 0
BITMAP
0880
0500
0200
0000
0080
0180
0280
0480
0480
0880
0F80
1080
1080
20C0
2080
F1E0
ENDCHAR
STARTCHAR uni01CE
ENCODING 462
SWIDTH 561 0
DWIDTH 9 0
BBX 9 12 1 0
BITMAP
1100
0A00
0400
0000
0F80
1100
2100
4100
8200
8600
9A80
6300
ENDCHAR
STARTCHAR uni01CF
ENCODING 463
SWIDTH 345 0
DWIDTH 6 0
BBX 7 16 1 0
BITMAP
22
14
08
00
3E
08
08
08
10
10
10
10
20
20
20
F8
ENDCHAR
STARTCHAR uni01D0
ENCODING 464
SWIDTH 317 0
DWIDTH 5 0
BBX 5 12 1 0
BITMAP
88
50
20
00
50
20
20
20
40
50
50
60
ENDCHAR
STARTCHAR uni01D1
ENCODING 465
SWIDTH 753 0
DWIDTH 13 0
BBX 11 16 2 0
BITMAP
0880
0500
0200
0000
0F80
1040
2020
4020
4020
8020
8020
8040
8040
8080
6100
1E00
ENDCHAR
STARTCHAR uni01D2
ENCODING 466
SWIDTH 537 0
DWIDTH 9 0
BBX 7 12 2 0
BITMAP
22
14
08
00
1C
22
42
82
82
84
8C
70
ENDCHAR
STARTCHAR uni01D3
ENCODING 467
SWIDTH 794 0
DWIDTH 13 0
BBX 12 16 3 0
BITMAP
1100
0A00
0400
0000
F1F0
4040
4040
4080
4080
8080
8080
8100
8100
8200
4600
3800
ENDCHAR
STARTCHAR uni01D4
ENCODING 468
SWIDTH 618 0
DWIDTH 10 0
BBX 8 12 2 0
BITMAP
44
28
10
00
A1
42
42
42
84
8D
95
66
ENDCHAR
STARTCHAR uni01D5
ENCODING 469
SWIDTH 794 0
DWIDTH 13 0
BBX 12 16 3 0
BITMAP
0F80
0000
0880
0000
F0F0
4040
4040
4040
4080
4080
8080
8080
8080
8100
4200
3C00
ENDCHAR
STARTCHAR uni01D6
ENCODING 470
SWIDTH 618 0
DWIDTH 10 0
BBX 8 13 2 0
BITMAP
1F
00
11
00
00
A1
42
42
42
84
8D
95
66
ENDCHAR
STARTCHAR uni01D7
ENCODING 471
SWIDTH 794 0
DWIDTH 13 0
BBX 12 18 3 0
BITMAP
0080
0100
0600
0000
0880
0000
F0F0
4040
4040
4040
4080
4080
8080
8080
8080
8100
4200
3C00
ENDCHAR
STARTCHAR uni01D8
ENCODING 472
SWIDTH 618 0
DWIDTH 10 0
BBX 8 15 2 0
BITMAP
01
02
0C
00
11
00
00
A1
42
42
42
84
8D
95
66
ENDCHAR
STARTCHAR uni01D9
ENCODING 473
SWIDTH 794 0
DWIDTH 13 0
BBX 12 18 3 0
BITMAP
0880
0500
0200
0000
0880
0000
F0F0
4040
4040
4040
4080
4080
8080
8080
8080
8100
4200
3C00
ENDCHAR
STARTCHAR uni01DA
ENCODING 474
SWIDTH 618 0
DWIDTH 10 0
BBX 8 15 2 0
BITMAP
11
0A
04
00
11
00
00
A1
42
42
42
84
8D
95
66
ENDCHAR
STARTCHAR uni01DB
ENCODING 475
SWIDTH 794 0
DWIDTH 13 0
BBX 12 18 3 0
BITMAP
1000
0800
0600
0000
0880
0000
F0F0
4040
4040
4040
4080
4080
8080
8080
8080
8100
4200
3C00
ENDCHAR
STARTCHAR uni01DC
ENCODING 476
SWIDTH 618 0
DWIDTH 10 0
BBX 8 15 2 0
BITMAP
20
10
0C
00
11
00
00
A1
42
42
42
84
8D
95
66
ENDCHAR
STARTCHAR uni01DD
ENCODING 477
SWIDTH 453 0
DWIDTH 8 0
BBX 6 8 2 0
BITMAP
38
44
84
18
64
88
90
60
ENDCHAR
STARTCHAR uni01DE
ENCODING 478
SWIDTH 624 0
DWIDTH 10 0
BBX 11 16 -1 0
BITMAP
07C0
0000
0120
0000
00C0
00C0
0140
0240
0240
0440
07C0
0840
1040
2020
2040
F8E0
ENDCHAR
STARTCHAR uni01DF
ENCODING 479
SWIDTH 561 0
DWIDTH 9 0
BBX 9 13 1 0
BITMAP
1F00
0000
0900
0000
0000
0F00
1100
2100
4200
8200
8600
9A80
6300
ENDCHAR
STARTCHAR uni01E0
ENCODING 480
SWIDTH 624 0
DWIDTH 10 0
BBX 11 16 0 0
BITMAP
07C0
0000
0200
0000
0080
0180
0280
0480
0480
0880
0F80
1080
1080
20C0
2080
F1E0
ENDCHAR
STARTCHAR uni01E1
ENCODING 481
SWIDTH 561 0
DWIDTH 9 0
BBX 9 12 1 0
BITMAP
1F00
0000
0400
0000
0F80
1100
2100
4100
8200
8600
9A80
6300
ENDCHAR
STARTCHAR uni01E2
ENCODING 482
SWIDTH 880 0
DWIDTH 15 0
BBX 18 14 -1 0
BITMAP
007C00
000000
00FFC0
005080
009080
00A000
012000
022100
03FE00
044200
084000
104100
204100
F1FE00
ENDCHAR
STARTCHAR uni01E3
ENCODING 483
SWIDTH 779 0
DWIDTH 13 0
BBX 13 10 1 0
BITMAP
07C0
0000
0F30
31C8
4188
4110
86E0
8A08
9210
61E0
ENDCHAR
STARTCHAR uni01E4
ENCODING 484
SWIDTH 709 0
DWIDTH 12 0
BBX 13 12 2 0
BITMAP
0F80
1060
2040
4040
4000
8000
8000
83E0
8080
83F8
6180
1E00
ENDCHAR
STARTCHAR uni01E5
ENCODING 485
SWIDTH 499 0
DWIDTH 8 0
BBX 9 12 1 -4
BITMAP
1D80
2200
4200
4400
3800
4000
3000
4C00
8200
FF80
4400
3800
ENDCHAR
STARTCHAR Gcaron
ENCODING 486
SWIDTH 709 0
DWIDTH 12 0
BBX 11 16 2 0
BITMAP
0880
0500
0200
0000
0F80
1060
2040
4040
4000
8000
8000
83E0
8080
8080
6180
1E00
ENDCHAR
STARTCHAR gcaron
ENCODING 487
SWIDTH 499 0
DWIDTH 8 0
BBX 9 16 1 -4
BITMAP
2200
1400
0800
0000
1D80
2200
4200
4400
3800
4000
3000
4C00
8200
8200
4400
3800
ENDCHAR
STARTCHAR uni01E8
ENCODING 488
SWIDTH 650 0
DWIDTH 11 0
BBX 12 16 1 0
BITMAP
0880
0500
0200
0000
3CF0
0840
0880
1300
1400
1800
1400
1400
2200
2200
2100
F8C0
ENDCHAR
STARTCHAR uni01E9
ENCODING 489
SWIDTH 545 0
DWIDTH 9 0
BBX 8 16 2 0
BITMAP
44
28
10
00
10
70
10
20
27
28
28
48
50
49
4A
84
ENDCHAR
STARTCHAR uni01EA
ENCODING 490
SWIDTH 753 0
DWIDTH 13 0
BBX 11 16 2 -4
BITMAP
0F80
1040
2020
4020
4020
8020
8020
8040
8040
8080
6100
1E00
0400
0800
0800
0600
ENDCHAR
STARTCHAR uni01EB
ENCODING 491
SWIDTH 537 0
DWIDTH 9 0
BBX 7 12 2 -4
BITMAP
1C
22
42
82
82
84
8C
70
10
20
20
18
ENDCHAR
STARTCHAR uni01EC
ENCODING 492
SWIDTH 753 0
DWIDTH 13 0
BBX 11 18 2 -4
BITMAP
0F80
0000
0F80
1040
2020
4020
4020
8020
8020
8040
8040
8080
6100
1E00
0400
0800
0800
0600
ENDCHAR
STARTCHAR uni01ED
ENCODING 493
SWIDTH 537 0
DWIDTH 9 0
BBX 7 14 2 -4
BITMAP
7C
00
1C
22
42
82
82
84
8C
70
10
20
20
18
ENDCHAR
STARTCHAR uni01F0
ENCODING 496
SWIDTH 309 0
DWIDTH 5 0
BBX 7 16 -1 -4
BITMAP
22
14
08
00
1C
04
04
08
08
08
08
10
10
10
A0
40
ENDCHAR
STARTCHAR uni01F4
ENCODING 500
SWIDTH 709 0
DWIDTH 12 0
BBX 11 16 2 0
BITMAP
0080
0100
0600
0000
0F80
1060
2040
4040
4000
8000
8000
83E0
8080
8080
6180
1E00
ENDCHAR
STARTCHAR uni01F5
ENCODING 501
SWIDTH 499 0
DWIDTH 8 0
BBX 9 16 1 -4
BITMAP
0200
0400
1800
0000
1D80
2200
4200
4400
3800
4000
3000
4C00
8200
8200
4400
3800
ENDCHAR
STARTCHAR uni01F8
ENCODING 504
SWIDTH 763 0
DWIDTH 13 0
BBX 15 16 0 0
BITMAP
0400
0200
0180
0000
1C1E
0C08
0A08
0A08
1110
1110
1090
1090
2090
2060
2040
F020
ENDCHAR
STARTCHAR uni01F9
ENCODING 505
SWIDTH 618 0
DWIDTH 10 0
BBX 8 12 2 0
BITMAP
20
10
0C
00
42
2D
29
32
24
45
45
C6
ENDCHAR
STARTCHAR Aringacute
ENCODING 506
SWIDTH 624 0
DWIDTH 10 0
BBX 12 19 -1 0
BITMAP
0020
0040
0180
0000
00C0
0120
0120
00C0
00C0
0140
0240
0440
0440
07C0
0840
1020
2020
2020
F0F0
ENDCHAR
STARTCHAR aringacute
ENCODING 507
SWIDTH 561 0
DWIDTH 9 0
BBX 9 17 1 0
BITMAP
0100
0200
0C00
0000
0600
0900
0900
0600
0000
0F80
1100
2100
4100
8200
8600
9A80
6300
ENDCHAR
STARTCHAR AEacute
ENCODING 508
SWIDTH 880 0
DWIDTH 15 0
BBX 18 16 -1 0
BITMAP
000400
000800
003000
000000
00FFC0
005080
009080
00A000
012000
022100
03FE00
044200
084000
104100
204100
F1FE00
ENDCHAR
STARTCHAR aeacute
ENCODING 509
SWIDTH 779 0
DWIDTH 13 0
BBX 13 12 1 0
BITMAP
0040
0080
0300
0000
0F30
31C8
4188
4110
86E0
8A08
9210
61E0
ENDCHAR
STARTCHAR Oslashacute
ENCODING 510
SWIDTH 753 0
DWIDTH 13 0
BBX 11 16 2 0
BITMAP
0080
0100
0600
0000
0FA0
1040
20A0
4120
4220
8420
8820
9040
A040
C080
4100
BE00
ENDCHAR
STARTCHAR oslashacute
ENCODING 511
SWIDTH 537 0
DWIDTH 9 0
BBX 7 12 2 0
BITMAP
02
04
18
00
1E
22
4E
92
A2
C4
8C
F0
ENDCHAR
STARTCHAR Scommaaccent
ENCODING 536
SWIDTH 533 0
DWIDTH 9 0
BBX 9 18 1 -6
BITMAP
0E00
1180
2100
2000
1000
0C00
0600
0100
8100
8100
4200
3C00
0000
0800
0800
0800
1000
1000
ENDCHAR
STARTCHAR scommaaccent
ENCODING 537
SWIDTH 389 0
DWIDTH 6 0
BBX 6 14 1 -6
BITMAP
38
44
40
20
10
88
88
70
00
20
20
20
40
40
ENDCHAR
STARTCHAR Tcommaaccent
ENCODING 538
SWIDTH 606 0
DWIDTH 10 0
BBX 11 18 2 -6
BITMAP
7FE0
8440
8840
0800
0800
0800
1000
1000
1000
1000
1000
FC00
0000
0800
0800
0800
1000
1000
ENDCHAR
STARTCHAR tcommaaccent
ENCODING 539
SWIDTH 341 0
DWIDTH 6 0
BBX 5 16 2 -6
BITMAP
20
20
F8
40
40
40
80
A0
A0
C0
00
40
40
40
80
80
ENDCHAR
STARTCHAR uni021E
ENCODING 542
SWIDTH 775 0
DWIDTH 13 0
BBX 14 16 1 0
BITMAP
0440
0280
0100
0000
3E7C
0810
0810
0810
1020
1020
1FE0
1020
2040
2040
2040
F9F0
ENDCHAR
STARTCHAR uni021F
ENCODING 543
SWIDTH 607 0
DWIDTH 10 0
BBX 8 16 2 0
BITMAP
44
28
10
00
18
70
10
10
22
2D
31
32
64
45
45
C6
ENDCHAR
STARTCHAR uni0226
ENCODING 550
SWIDTH 624 0
DWIDTH 10 0
BBX 11 14 0 0
BITMAP
0200
0000
0080
0180
0280
0480
0480
0880
0F80
1080
1080
20C0
2080
F1E0
ENDCHAR
STARTCHAR uni0227
ENCODING 551
SWIDTH 561 0
DWIDTH 9 0
BBX 9 10 1 0
BITMAP
0400
0000
0F80
1100
2100
4100
8200
8600
9A80
6300
ENDCHAR
STARTCHAR uni0228
ENCODING 552
SWIDTH 596 0
DWIDTH 10 0
BBX 11 16 1 -4
BITMAP
1FE0
0840
0840
0800
0800
0880
1F00
1100
2000
2080
2080
FF00
0800
0800
0400
1800
ENDCHAR
STARTCHAR uni0229
ENCODING 553
SWIDTH 453 0
DWIDTH 8 0
BBX 6 12 2 -4
BITMAP
18
24
44
98
60
84
88
70
20
20
10
60
ENDCHAR
STARTCHAR uni022A
ENCODING 554
SWIDTH 753 0
DWIDTH 13 0
BBX 11 16 2 0
BITMAP
0F80
0000
0480
0000
0F00
10C0
2020
4020
4020
8020
8020
8040
8040
8080
6100
1E00
ENDCHAR
STARTCHAR uni022B
ENCODING 555
SWIDTH 537 0
DWIDTH 9 0
BBX 7 13 2 0
BITMAP
3E
00
12
00
00
1C
22
42
82
82
84
CC
30
ENDCHAR
STARTCHAR uni022C
ENCODING 556
SWIDTH 753 0
DWIDTH 13 0
BBX 11 16 2 0
BITMAP
0F80
0000
0FA0
0040
0F00
10C0
2020
4020
4020
8020
8020
8040
8040
8080
6100
1E00
ENDCHAR
STARTCHAR uni022D
ENCODING 557
SWIDTH 537 0
DWIDTH 9 0
BBX 7 14 2 0
BITMAP
3E
00
02
1C
20
00
1C
22
42
82
82
84
8C
70
ENDCHAR
STARTCHAR uni022E
ENCODING 558
SWIDTH 753 0
DWIDTH 13 0
BBX 11 14 2 0
BITMAP
0200
0000
0F80
1040
2020
4020
4020
8020
8020
8040
8040
8080
6100
1E00
ENDCHAR
STARTCHAR uni022F
ENCODING 559
SWIDTH 537 0
DWIDTH 9 0
BBX 7 10 2 0
BITMAP
08
00
1C
22
42
82
82
84
8C
70
ENDCHAR
STARTCHAR uni0230
ENCODING 560
SWIDTH 753 0
DWIDTH 13 0
BBX 11 16 2 0
BITMAP
0F80
0000
0200
0000
0F80
1040
2020
4020
4020
8020
8020
8040
8040
8080
6100
1E00
ENDCHAR
STARTCHAR uni0231
ENCODING 561
SWIDTH 537 0
DWIDTH 9 0
BBX 7 12 2 0
BITMAP
3E
00
08
00
1C
22
42
82
82
84
8C
70
ENDCHAR
STARTCHAR uni0232
ENCODING 562
SWIDTH 591 0
DWIDTH 10 0
BBX 10 14 3 0
BITMAP
3E00
0000
E3C0
4100
4200
2200
2400
2800
1000
2000
2000
2000
2000
F800
ENDCHAR
STARTCHAR uni0233
ENCODING 563
SWIDTH 468 0
DWIDTH 8 0
BBX 9 14 0 -4
BITMAP
1F00
0000
3080
0880
0880
0900
0900
0A00
0A00
0C00
0800
0800
5000
E000
ENDCHAR
STARTCHAR uni0250
ENCODING 592
SWIDTH 561 0
DWIDTH 9 0
BBX 9 8 1 0
BITMAP
6300
AC80
3080
2080
4100
4200
4400
F800
ENDCHAR
STARTCHAR uni0259
ENCODING 601
SWIDTH 453 0
DWIDTH 8 0
BBX 6 8 2 0
BITMAP
38
44
84
18
64
88
90
60
ENDCHAR
STARTCHAR uni025F
ENCODING 607
SWIDTH 315 0
DWIDTH 5 0
BBX 10 16 -1 -8
BITMAP
0080
0140
0200
0200
0200
0400
0400
0400
0400
0400
0800
3E00
0800
0800
9000
6000
ENDCHAR
STARTCHAR uni0265
ENCODING 613
SWIDTH 607 0
DWIDTH 10 0
BBX 8 12 2 -4
BITMAP
63
A2
A2
26
4C
8C
B4
44
08
08
0E
18
ENDCHAR
STARTCHAR uni0275
ENCODING 629
SWIDTH 537 0
DWIDTH 9 0
BBX 7 8 2 0
BITMAP
1C
22
42
FE
82
84
8C
70
ENDCHAR
STARTCHAR uni0279
ENCODING 633
SWIDTH 402 0
DWIDTH 7 0
BBX 6 8 2 0
BITMAP
04
04
08
08
08
18
28
C4
ENDCHAR
STARTCHAR uni0287
ENCODING 647
SWIDTH 341 0
DWIDTH 6 0
BBX 5 10 2 0
BITMAP
18
28
28
08
10
10
10
F8
20
20
ENDCHAR
STARTCHAR uni0289
ENCODING 649
SWIDTH 618 0
DWIDTH 10 0
BBX 8 8 2 0
BITMAP
A1
42
42
FF
84
8D
95
66
ENDCHAR
STARTCHAR uni028C
ENCODING 652
SWIDTH 510 0
DWIDTH 8 0
BBX 7 8 2 0
BITMAP
0C
12
22
42
84
84
84
86
ENDCHAR
STARTCHAR uni028D
ENCODING 653
SWIDTH 785 0
DWIDTH 13 0
BBX 12 8 2 0
BITMAP
0C20
12D0
2310
4210
8220
8420
8420
8C30
ENDCHAR
STARTCHAR uni028E
ENCODING 654
SWIDTH 468 0
DWIDTH 8 0
BBX 9 12 0 0
BITMAP
0380
0500
0800
0800
1800
2800
2800
4800
4800
8800
8800
8600
ENDCHAR
STARTCHAR uni029E
ENCODING 670
SWIDTH 545 0
DWIDTH 9 0
BBX 8 12 2 -4
BITMAP
21
52
92
0A
12
14
14
E4
04
08
0E
08
ENDCHAR
STARTCHAR uni02BB
ENCODING 699
SWIDTH 216 0
DWIDTH 4 0
BBX 3 4 3 8
BITMAP
20
40
C0
40
ENDCHAR
STARTCHAR afii57929
ENCODING 700
SWIDTH 216 0
DWIDTH 4 0
BBX 3 4 2 8
BITMAP
40
60
40
80
ENDCHAR
STARTCHAR afii64937
ENCODING 701
SWIDTH 216 0
DWIDTH 4 0
BBX 3 4 2 8
BITMAP
40
C0
40
20
ENDCHAR
STARTCHAR circumflex
ENCODING 710
SWIDTH 400 0
DWIDTH 7 0
BBX 5 3 4 9
BITMAP
20
50
88
ENDCHAR
STARTCHAR caron
ENCODING 711
SWIDTH 400 0
DWIDTH 7 0
BBX 5 3 4 9
BITMAP
88
50
20
ENDCHAR
STARTCHAR uni02C8
ENCODING 712
SWIDTH 216 0
DWIDTH 4 0
BBX 2 5 3 7
BITMAP
40
80
80
80
80
ENDCHAR
STARTCHAR macron
ENCODING 713
SWIDTH 400 0
DWIDTH 7 0
BBX 5 1 4 10
BITMAP
F8
ENDCHAR
STARTCHAR uni02CA
ENCODING 714
SWIDTH 400 0
DWIDTH 7 0
BBX 4 3 4 9
BITMAP
10
20
C0
ENDCHAR
STARTCHAR uni02CB
ENCODING 715
SWIDTH 400 0
DWIDTH 7 0
BBX 4 3 3 9
BITMAP
80
40
30
ENDCHAR
STARTCHAR uni02CD
ENCODING 717
SWIDTH 400 0
DWIDTH 7 0
BBX 5 1 4 -2
BITMAP
F8
ENDCHAR
STARTCHAR uni02CE
ENCODING 718
SWIDTH 400 0
DWIDTH 7 0
BBX 4 3 3 -4
BITMAP
80
40
30
ENDCHAR
STARTCHAR uni02CF
ENCODING 719
SWIDTH 400 0
DWIDTH 7 0
BBX 4 3 4 -4
BITMAP
10
20
C0
ENDCHAR
STARTCHAR breve
ENCODING 728
SWIDTH 400 0
DWIDTH 7 0
BBX 5 3 4 9
BITMAP
88
88
70
ENDCHAR
STARTCHAR dotaccent
ENCODING 729
SWIDTH 402 0
DWIDTH 7 0
BBX 1 1 5 10
BITMAP
80
ENDCHAR
STARTCHAR ring
ENCODING 730
SWIDTH 400 0
DWIDTH 7 0
BBX 3 4 4 9
BITMAP
40
A0
A0
40
ENDCHAR
STARTCHAR ogonek
ENCODING 731
SWIDTH 350 0
DWIDTH 6 0
BBX 3 4 2 -4
BITMAP
40
80
80
60
ENDCHAR
STARTCHAR tilde
ENCODING 732
SWIDTH 400 0
DWIDTH 7 0
BBX 6 2 3 9
BITMAP
64
98
ENDCHAR
STARTCHAR hungarumlaut
ENCODING 733
SWIDTH 400 0
DWIDTH 7 0
BBX 5 3 3 9
BITMAP
48
50
90
ENDCHAR
STARTCHAR uni02EE
ENCODING 750
SWIDTH 402 0
DWIDTH 7 0
BBX 6 4 2 8
BITMAP
48
6C
48
90
ENDCHAR
STARTCHAR uni037E
ENCODING 894
SWIDTH 265 0
DWIDTH 4 0
BBX 4 10 1 -2
BITMAP
30
20
00
00
00
00
40
40
40
80
ENDCHAR
STARTCHAR tonos
ENCODING 900
SWIDTH 400 0
DWIDTH 7 0
BBX 4 3 4 9
BITMAP
10
20
C0
ENDCHAR
STARTCHAR dieresistonos
ENCODING 901
SWIDTH 400 0
DWIDTH 7 0
BBX 5 5 4 10
BITMAP
08
10
60
00
D8
ENDCHAR
STARTCHAR anoteleia
ENCODING 903
SWIDTH 265 0
DWIDTH 4 0
BBX 2 2 2 3
BITMAP
40
80
ENDCHAR
STARTCHAR mu
ENCODING 956
SWIDTH 618 0
DWIDTH 10 0
BBX 9 12 1 -4
BITMAP
5080
2100
2100
2100
2200
2600
6A80
B300
8000
8000
8000
8000
ENDCHAR
STARTCHAR uni1E00
ENCODING 7680
SWIDTH 624 0
DWIDTH 10 0
BBX 11 17 0 -5
BITMAP
0080
0180
0280
0480
0480
0880
0F80
1080
1080
20C0
2080
F1E0
0000
0400
0A00
0A00
0400
ENDCHAR
STARTCHAR uni1E01
ENCODING 7681
SWIDTH 561 0
DWIDTH 9 0
BBX 9 13 1 -5
BITMAP
0F80
1100
2100
4100
8200
8600
9A80
6300
0000
0800
1400
1400
0800
ENDCHAR
STARTCHAR uni1E02
ENCODING 7682
SWIDTH 632 0
DWIDTH 11 0
BBX 10 14 1 0
BITMAP
0400
0000
3F00
18C0
0840
1040
1080
1F00
1100
1080
2080
2080
2100
FE00
ENDCHAR
STARTCHAR uni1E03
ENCODING 7683
SWIDTH 559 0
DWIDTH 9 0
BBX 8 14 2 0
BITMAP
10
00
18
70
10
20
26
29
31
21
42
42
44
B8
ENDCHAR
STARTCHAR uni1E04
ENCODING 7684
SWIDTH 632 0
DWIDTH 11 0
BBX 10 14 1 -2
BITMAP
3F00
18C0
0840
1040
1080
1F00
1100
1080
2080
2080
2100
FE00
0000
0800
ENDCHAR
STARTCHAR uni1E05
ENCODING 7685
SWIDTH 559 0
DWIDTH 9 0
BBX 8 14 2 -2
BITMAP
18
70
10
20
26
29
31
21
42
42
44
B8
00
10
ENDCHAR
STARTCHAR uni1E06
ENCODING 7686
SWIDTH 632 0
DWIDTH 11 0
BBX 10 14 1 -2
BITMAP
3F00
18C0
0840
1040
1080
1F00
1100
1080
2080
2080
2100
FE00
0000
3E00
ENDCHAR
STARTCHAR uni1E07
ENCODING 7687
SWIDTH 559 0
DWIDTH 9 0
BBX 8 14 2 -2
BITMAP
18
70
10
20
26
29
31
21
42
42
44
B8
00
7C
ENDCHAR
STARTCHAR uni1E08
ENCODING 7688
SWIDTH 661 0
DWIDTH 11 0
BBX 11 20 2 -4
BITMAP
0100
0200
0C00
0000
0F00
30E0
4040
4040
4000
8000
8000
8000
8080
8100
4100
3E00
1000
1000
0800
3000
ENDCHAR
STARTCHAR uni1E09
ENCODING 7689
SWIDTH 441 0
DWIDTH 7 0
BBX 6 16 2 -4
BITMAP
04
08
30
00
18
24
44
80
80
84
88
70
40
40
20
C0
ENDCHAR
STARTCHAR uni1E0A
ENCODING 7690
SWIDTH 763 0
DWIDTH 13 0
BBX 12 14 1 0
BITMAP
0200
0000
1F80
0860
0810
0810
0810
1010
1010
1020
1020
2060
2080
FF00
ENDCHAR
STARTCHAR uni1E0B
ENCODING 7691
SWIDTH 587 0
DWIDTH 10 0
BBX 9 14 2 0
BITMAP
0200
0000
0180
0300
0100
0100
1E00
2200
4200
4200
8400
8C00
9500
6600
ENDCHAR
STARTCHAR uni1E0C
ENCODING 7692
SWIDTH 763 0
DWIDTH 13 0
BBX 12 14 1 -2
BITMAP
1F80
0860
0810
0810
0810
1010
1010
1020
1020
2060
2080
FF00
0000
0400
ENDCHAR
STARTCHAR uni1E0D
ENCODING 7693
SWIDTH 587 0
DWIDTH 10 0
BBX 9 14 2 -2
BITMAP
0180
0300
0100
0100
1E00
2200
4200
4200
8400
8C00
9500
6600
0000
0800
ENDCHAR
STARTCHAR uni1E0E
ENCODING 7694
SWIDTH 763 0
DWIDTH 13 0
BBX 12 14 1 -2
BITMAP
1F80
0860
0810
0810
0810
1010
1010
1020
1020
2060
2080
FF00
0000
1F00
ENDCHAR
STARTCHAR uni1E0F
ENCODING 7695
SWIDTH 587 0
DWIDTH 10 0
BBX 9 14 2 -2
BITMAP
0180
0300
0100
0100
1E00
2200
4200
4200
8400
8C00
9500
6600
0000
3E00
ENDCHAR
STARTCHAR uni1E10
ENCODING 7696
SWIDTH 763 0
DWIDTH 13 0
BBX 12 16 1 -4
BITMAP
1F80
0860
0810
0810
0810
1010
1010
1020
1020
2060
2080
FF00
0400
0400
0200
0C00
ENDCHAR
STARTCHAR uni1E11
ENCODING 7697
SWIDTH 587 0
DWIDTH 10 0
BBX 9 16 2 -4
BITMAP
0180
0300
0100
0100
1E00
2200
4200
4200
8400
8C00
9500
6600
0800
0800
0400
1800
ENDCHAR
STARTCHAR uni1E12
ENCODING 7698
SWIDTH 763 0
DWIDTH 13 0
BBX 12 16 1 -4
BITMAP
1F80
0860
0810
0810
0810
1010
1010
1020
1020
2060
2080
FF00
0000
0400
0A00
1100
ENDCHAR
STARTCHAR uni1E13
ENCODING 7699
SWIDTH 587 0
DWIDTH 10 0
BBX 9 16 2 -4
BITMAP
0180
0300
0100
0100
1E00
2200
4200
4200
8400
8C00
9500
6600
0000
0800
1400
2200
ENDCHAR
STARTCHAR uni1E14
ENCODING 7700
SWIDTH 596 0
DWIDTH 10 0
BBX 11 18 1 0
BITMAP
0800
0400
0300
0000
0F80
0000
1FE0
0840
0840
0800
0800
0880
1F00
1100
2000
2080
2080
FF00
ENDCHAR
STARTCHAR uni1E15
ENCODING 7701
SWIDTH 453 0
DWIDTH 8 0
BBX 6 14 2 0
BITMAP
40
20
18
00
7C
00
18
24
44
98
60
84
88
70
ENDCHAR
STARTCHAR uni1E16
ENCODING 7702
SWIDTH 596 0
DWIDTH 10 0
BBX 11 18 1 0
BITMAP
0080
0100
0600
0000
0F80
0000
1FE0
0840
0840
0800
0800
0880
1F00
1100
2000
2080
2080
FF00
ENDCHAR
STARTCHAR uni1E17
ENCODING 7703
SWIDTH 453 0
DWIDTH 8 0
BBX 6 14 2 0
BITMAP
04
08
30
00
7C
00
18
24
44
98
60
84
88
70
ENDCHAR
STARTCHAR uni1E18
ENCODING 7704
SWIDTH 596 0
DWIDTH 10 0
BBX 11 16 1 -4
BITMAP
1FE0
0840
0840
0800
0800
0880
1F00
1100
2000
2080
2080
FF00
0000
0800
1400
2200
ENDCHAR
STARTCHAR uni1E19
ENCODING 7705
SWIDTH 453 0
DWIDTH 8 0
BBX 6 12 2 -4
BITMAP
18
24
44
98
60
84
88
70
00
20
50
88
ENDCHAR
STARTCHAR uni1E1A
ENCODING 7706
SWIDTH 596 0
DWIDTH 10 0
BBX 11 15 1 -3
BITMAP
1FE0
0840
0840
0800
0800
0880
1F00
1100
2000
2080
2080
FF00
0000
1900
2600
ENDCHAR
STARTCHAR uni1E1B
ENCODING 7707
SWIDTH 453 0
DWIDTH 8 0
BBX 6 11 2 -3
BITMAP
18
24
44
98
60
84
88
70
00
64
98
ENDCHAR
STARTCHAR uni1E1C
ENCODING 7708
SWIDTH 596 0
DWIDTH 10 0
BBX 11 20 1 -4
BITMAP
0880
0880
0700
0000
1FE0
0840
0840
0800
0800
0880
1F00
1100
2000
2080
2080
FF00
0800
0800
0400
1800
ENDCHAR
STARTCHAR uni1E1D
ENCODING 7709
SWIDTH 453 0
DWIDTH 8 0
BBX 6 16 2 -4
BITMAP
44
44
38
00
18
24
44
98
60
84
88
70
20
20
10
60
ENDCHAR
STARTCHAR uni1E1E
ENCODING 7710
SWIDTH 571 0
DWIDTH 10 0
BBX 11 14 1 0
BITMAP
0200
0000
1FE0
0840
0840
0800
0800
0880
1F00
1100
2000
2000
2000
F000
ENDCHAR
STARTCHAR uni1E1F
ENCODING 7711
SWIDTH 315 0
DWIDTH 5 0
BBX 10 18 -1 -4
BITMAP
0400
0000
0180
0240
0400
0400
1F00
0400
0800
0800
0800
0800
0800
1000
1000
1000
A000
4000
ENDCHAR
STARTCHAR uni1E20
ENCODING 7712
SWIDTH 709 0
DWIDTH 12 0
BBX 11 14 2 0
BITMAP
0F80
0000
0F80
1060
2040
4040
4000
8000
8000
83E0
8080
8080
6180
1E00
ENDCHAR
STARTCHAR uni1E21
ENCODING 7713
SWIDTH 499 0
DWIDTH 8 0
BBX 9 14 1 -4
BITMAP
3E00
0000
1D80
2200
4200
4400
3800
4000
3000
4C00
8200
8200
4400
3800
ENDCHAR
STARTCHAR uni1E22
ENCODING 7714
SWIDTH 775 0
DWIDTH 13 0
BBX 14 14 1 0
BITMAP
0100
0000
3E7C
0810
0810
0810
1020
1020
1FE0
1020
2040
2040
2040
F9F0
ENDCHAR
STARTCHAR uni1E23
ENCODING 7715
SWIDTH 607 0
DWIDTH 10 0
BBX 8 14 2 0
BITMAP
10
00
18
70
10
10
22
2D
31
32
64
45
45
C6
ENDCHAR
STARTCHAR uni1E24
ENCODING 7716
SWIDTH 775 0
DWIDTH 13 0
BBX 14 14 1 -2
BITMAP
3E7C
0810
0810
0810
1020
1020
1FE0
1020
2040
2040
2040
F9F0
0000
0200
ENDCHAR
STARTCHAR uni1E25
ENCODING 7717
SWIDTH 607 0
DWIDTH 10 0
BBX 8 14 2 -2
BITMAP
18
70
10
10
22
2D
31
32
64
45
45
C6
00
08
ENDCHAR
STARTCHAR uni1E26
ENCODING 7718
SWIDTH 775 0
DWIDTH 13 0
BBX 14 14 1 0
BITMAP
06C0
0000
3E7C
0810
0810
0810
1020
1020
1FE0
1020
2040
2040
2040
F9F0
ENDCHAR
STARTCHAR uni1E27
ENCODING 7719
SWIDTH 607 0
DWIDTH 10 0
BBX 8 14 2 0
BITMAP
6C
00
18
70
10
10
22
2D
31
32
64
45
45
C6
ENDCHAR
STARTCHAR uni1E28
ENCODING 7720
SWIDTH 775 0
DWIDTH 13 0
BBX 14 16 1 -4
BITMAP
3E7C
0810
0810
0810
1020
1020
1FE0
1020
2040
2040
2040
F9F0
0200
0200
0100
0600
ENDCHAR
STARTCHAR uni1E29
ENCODING 7721
SWIDTH 607 0
DWIDTH 10 0
BBX 8 16 2 -4
BITMAP
18
70
10
10
22
2D
31
32
64
45
45
C6
08
08
04
18
ENDCHAR
STARTCHAR uni1E2A
ENCODING 7722
SWIDTH 775 0
DWIDTH 13 0
BBX 14 16 1 -4
BITMAP
3E7C
0810
0810
0810
1020
1020
1FE0
1020
2040
2040
2040
F9F0
0000
0880
0880
0700
ENDCHAR
STARTCHAR uni1E2B
ENCODING 7723
SWIDTH 607 0
DWIDTH 10 0
BBX 8 16 2 -4
BITMAP
18
70
10
10
22
2D
31
32
64
45
45
C6
00
22
22
1C
ENDCHAR
STARTCHAR uni1E2C
ENCODING 7724
SWIDTH 345 0
DWIDTH 6 0
BBX 7 15 1 -3
BITMAP
3E
08
08
08
10
10
10
10
20
20
20
F8
00
64
98
ENDCHAR
STARTCHAR uni1E2D
ENCODING 7725
SWIDTH 317 0
DWIDTH 5 0
BBX 6 15 0 -3
BITMAP
04
08
00
00
28
10
10
10
20
28
28
30
00
64
98
ENDCHAR
STARTCHAR uni1E2E
ENCODING 7726
SWIDTH 345 0
DWIDTH 6 0
BBX 7 18 1 0
BITMAP
02
04
18
00
22
00
3E
18
10
10
10
10
20
20
20
20
20
F0
ENDCHAR
STARTCHAR uni1E2F
ENCODING 7727
SWIDTH 317 0
DWIDTH 5 0
BBX 5 15 2 0
BITMAP
08
10
60
00
88
00
00
90
60
40
40
80
A0
A0
C0
ENDCHAR
STARTCHAR uni1E30
ENCODING 7728
SWIDTH 650 0
DWIDTH 11 0
BBX 12 16 1 0
BITMAP
0080
0100
0600
0000
3CF0
0840
0880
1300
1400
1800
1400
1400
2200
2200
2100
F8C0
ENDCHAR
STARTCHAR uni1E31
ENCODING 7729
SWIDTH 545 0
DWIDTH 9 0
BBX 8 16 2 0
BITMAP
04
08
30
00
10
70
10
20
27
28
28
48
50
49
4A
84
ENDCHAR
STARTCHAR uni1E32
ENCODING 7730
SWIDTH 650 0
DWIDTH 11 0
BBX 12 14 1 -2
BITMAP
3CF0
0840
0880
1300
1400
1800
1400
1400
2200
2200
2100
F8C0
0000
0400
ENDCHAR
STARTCHAR uni1E33
ENCODING 7731
SWIDTH 545 0
DWIDTH 9 0
BBX 8 14 2 -2
BITMAP
10
70
10
20
27
28
28
48
50
49
4A
84
00
10
ENDCHAR
STARTCHAR uni1E34
ENCODING 7732
SWIDTH 650 0
DWIDTH 11 0
BBX 12 14 1 -2
BITMAP
3CF0
0840
0880
1300
1400
1800
1400
1400
2200
2200
2100
F8C0
0000
1F00
ENDCHAR
STARTCHAR uni1E35
ENCODING 7733
SWIDTH 545 0
DWIDTH 9 0
BBX 8 14 2 -2
BITMAP
10
70
10
20
27
28
28
48
50
49
4A
84
00
7C
ENDCHAR
STARTCHAR uni1E36
ENCODING 7734
SWIDTH 565 0
DWIDTH 9 0
BBX 9 14 1 -2
BITMAP
3E00
0800
0800
1000
1000
1000
1000
1000
2000
2080
2100
FF00
0000
0800
ENDCHAR
STARTCHAR uni1E37
ENCODING 7735
SWIDTH 306 0
DWIDTH 5 0
BBX 4 14 2 -2
BITMAP
30
60
20
20
40
40
40
40
80
A0
A0
C0
00
40
ENDCHAR
STARTCHAR uni1E38
ENCODING 7736
SWIDTH 565 0
DWIDTH 9 0
BBX 9 16 1 -2
BITMAP
3E00
0000
3E00
0800
0800
1000
1000
1000
1000
1000
2000
2080
2100
FF00
0000
0800
ENDCHAR
STARTCHAR uni1E39
ENCODING 7737
SWIDTH 306 0
DWIDTH 5 0
BBX 5 16 2 -2
BITMAP
F8
00
30
60
20
20
40
40
40
40
80
A0
A0
C0
00
40
ENDCHAR
STARTCHAR uni1E3A
ENCODING 7738
SWIDTH 565 0
DWIDTH 9 0
BBX 9 14 1 -2
BITMAP
3E00
0800
0800
1000
1000
1000
1000
1000
2000
2080
2100
FF00
0000
3E00
ENDCHAR
STARTCHAR uni1E3B
ENCODING 7739
SWIDTH 306 0
DWIDTH 5 0
BBX 5 14 1 -2
BITMAP
18
30
10
10
20
20
20
20
40
50
50
60
00
F8
ENDCHAR
STARTCHAR uni1E3C
ENCODING 7740
SWIDTH 565 0
DWIDTH 9 0
BBX 9 16 1 -4
BITMAP
3E00
0800
0800
1000
1000
1000
1000
1000
2000
2080
2100
FF00
0000
0800
1400
2200
ENDCHAR
STARTCHAR uni1E3D
ENCODING 7741
SWIDTH 306 0
DWIDTH 5 0
BBX 5 16 1 -4
BITMAP
18
30
10
10
20
20
20
20
40
50
50
60
00
20
50
88
ENDCHAR
STARTCHAR uni1E3E
ENCODING 7742
SWIDTH 920 0
DWIDTH 15 0
BBX 17 16 0 0
BITMAP
001000
002000
00C000
000000
1C0380
0C0600
0C0A00
141200
121400
122400
122400
124800
228800
210800
210800
F13C00
ENDCHAR
STARTCHAR uni1E3F
ENCODING 7743
SWIDTH 912 0
DWIDTH 15 0
BBX 13 12 2 0
BITMAP
0040
0080
0300
0000
4230
2D48
2988
3110
2220
4228
4228
C630
ENDCHAR
STARTCHAR uni1E40
ENCODING 7744
SWIDTH 920 0
DWIDTH 15 0
BBX 17 14 0 0
BITMAP
004000
000000
1C0380
0C0600
0C0A00
141200
121400
122400
122400
124800
228800
210800
210800
F13C00
ENDCHAR
STARTCHAR uni1E41
ENCODING 7745
SWIDTH 912 0
DWIDTH 15 0
BBX 13 10 2 0
BITMAP
0200
0000
4230
2D48
2988
3110
2220
4228
4228
C630
ENDCHAR
STARTCHAR uni1E42
ENCODING 7746
SWIDTH 920 0
DWIDTH 15 0
BBX 17 14 0 -2
BITMAP
1C0380
0C0600
0C0A00
141200
121400
122400
122400
124800
228800
210800
210800
F13C00
000000
010000
ENDCHAR
STARTCHAR uni1E43
ENCODING 7747
SWIDTH 912 0
DWIDTH 15 0
BBX 13 10 2 -2
BITMAP
4230
2D48
2988
3110
2220
4228
4228
C630
0000
0200
ENDCHAR
STARTCHAR uni1E44
ENCODING 7748
SWIDTH 763 0
DWIDTH 13 0
BBX 15 14 0 0
BITMAP
0080
0000
1C1E
0C08
0A08
0A08
1110
1110
1090
1090
2090
2060
2040
F020
ENDCHAR
STARTCHAR uni1E45
ENCODING 7749
SWIDTH 618 0
DWIDTH 10 0
BBX 8 10 2 0
BITMAP
08
00
42
2D
29
32
24
45
45
C6
ENDCHAR
STARTCHAR uni1E46
ENCODING 7750
SWIDTH 763 0
DWIDTH 13 0
BBX 15 14 0 -2
BITMAP
1C1E
0C08
0A08
0A08
1110
1110
1090
1090
2090
2060
2040
F020
0000
0200
ENDCHAR
STARTCHAR uni1E47
ENCODING 7751
SWIDTH 618 0
DWIDTH 10 0
BBX 8 10 2 -2
BITMAP
42
2D
29
32
24
45
45
C6
00
08
ENDCHAR
STARTCHAR uni1E48
ENCODING 7752
SWIDTH 763 0
DWIDTH 13 0
BBX 15 14 0 -2
BITMAP
1C1E
0C08
0A08
0A08
1110
1110
1090
1090
2090
2060
2040
F020
0000
0F80
ENDCHAR
STARTCHAR uni1E49
ENCODING 7753
SWIDTH 618 0
DWIDTH 10 0
BBX 8 10 2 -2
BITMAP
42
2D
29
32
24
45
45
C6
00
3E
ENDCHAR
STARTCHAR uni1E4A
ENCODING 7754
SWIDTH 763 0
DWIDTH 13 0
BBX 15 16 0 -4
BITMAP
1C1E
0C08
0A08
0A08
1110
1110
1090
1090
2090
2060
2040
F020
0000
0200
0500
0880
ENDCHAR
STARTCHAR uni1E4B
ENCODING 7755
SWIDTH 618 0
DWIDTH 10 0
BBX 8 12 2 -4
BITMAP
42
2D
29
32
24
45
45
C6
00
08
14
22
ENDCHAR
STARTCHAR uni1E4C
ENCODING 7756
SWIDTH 753 0
DWIDTH 13 0
BBX 11 18 2 0
BITMAP
0080
0100
0600
0000
0FA0
0040
0F00
10C0
2020
4020
4020
8020
8020
8040
8040
8080
6100
1E00
ENDCHAR
STARTCHAR uni1E4D
ENCODING 7757
SWIDTH 537 0
DWIDTH 9 0
BBX 7 16 2 0
BITMAP
02
04
18
00
02
1C
20
00
1C
22
42
82
82
84
8C
70
ENDCHAR
STARTCHAR uni1E4E
ENCODING 7758
SWIDTH 753 0
DWIDTH 13 0
BBX 11 16 2 0
BITMAP
0D80
0000
0FA0
0040
0F00
10C0
2020
4020
4020
8020
8020
8040
8040
8080
6100
1E00
ENDCHAR
STARTCHAR uni1E4F
ENCODING 7759
SWIDTH 537 0
DWIDTH 9 0
BBX 7 14 2 0
BITMAP
36
00
02
1C
20
00
1C
22
42
82
82
84
8C
70
ENDCHAR
STARTCHAR uni1E50
ENCODING 7760
SWIDTH 753 0
DWIDTH 13 0
BBX 11 18 2 0
BITMAP
0800
0400
0300
0000
0F80
0000
0F80
1040
2020
4020
4020
8020
8020
8040
8040
8080
6100
1E00
ENDCHAR
STARTCHAR uni1E51
ENCODING 7761
SWIDTH 537 0
DWIDTH 9 0
BBX 7 14 2 0
BITMAP
20
10
0C
00
3E
00
1C
22
42
82
82
84
8C
70
ENDCHAR
STARTCHAR uni1E52
ENCODING 7762
SWIDTH 753 0
DWIDTH 13 0
BBX 11 18 2 0
BITMAP
0080
0100
0600
0000
0F80
0000
0F80
1040
2020
4020
4020
8020
8020
8040
8040
8080
6100
1E00
ENDCHAR
STARTCHAR uni1E53
ENCODING 7763
SWIDTH 537 0
DWIDTH 9 0
BBX 7 14 2 0
BITMAP
02
04
18
00
3E
00
1C
22
42
82
82
84
8C
70
ENDCHAR
STARTCHAR uni1E54
ENCODING 7764
SWIDTH 614 0
DWIDTH 10 0
BBX 10 16 1 0
BITMAP
0100
0200
0C00
0000
1F00
0880
0840
0840
0840
0840
1180
1E00
1000
2000
2000
F800
ENDCHAR
STARTCHAR uni1E55
ENCODING 7765
SWIDTH 590 0
DWIDTH 10 0
BBX 9 16 1 -4
BITMAP
0100
0200
0C00
0000
7300
1480
1880
1080
2100
2100
2200
5C00
4000
4000
4000
C000
ENDCHAR
STARTCHAR uni1E56
ENCODING 7766
SWIDTH 614 0
DWIDTH 10 0
BBX 10 14 1 0
BITMAP
0400
0000
1F00
0880
0840
0840
0840
0840
1180
1E00
1000
2000
2000
F800
ENDCHAR
STARTCHAR uni1E57
ENCODING 7767
SWIDTH 590 0
DWIDTH 10 0
BBX 9 14 1 -4
BITMAP
0800
0000
7300
1480
1880
1080
2100
2100
2200
5C00
4000
4000
4000
C000
ENDCHAR
STARTCHAR uni1E58
ENCODING 7768
SWIDTH 640 0
DWIDTH 11 0
BBX 10 14 1 0
BITMAP
0400
0000
3F00
08C0
0840
0840
1040
1180
1E00
2100
2100
2100
2100
F0C0
ENDCHAR
STARTCHAR uni1E59
ENCODING 7769
SWIDTH 402 0
DWIDTH 7 0
BBX 6 10 2 0
BITMAP
20
00
8C
50
60
40
40
40
80
80
ENDCHAR
STARTCHAR uni1E5A
ENCODING 7770
SWIDTH 640 0
DWIDTH 11 0
BBX 10 14 1 -2
BITMAP
3F00
08C0
0840
0840
1040
1180
1E00
2100
2100
2100
2100
F0C0
0000
0800
ENDCHAR
STARTCHAR uni1E5B
ENCODING 7771
SWIDTH 402 0
DWIDTH 7 0
BBX 6 10 2 -2
BITMAP
8C
50
60
40
40
40
80
80
00
40
ENDCHAR
STARTCHAR uni1E5C
ENCODING 7772
SWIDTH 640 0
DWIDTH 11 0
BBX 10 16 1 -2
BITMAP
1F00
0000
3F00
08C0
0840
0840
1040
1180
1E00
2100
2100
2100
2100
F0C0
0000
0800
ENDCHAR
STARTCHAR uni1E5D
ENCODING 7773
SWIDTH 402 0
DWIDTH 7 0
BBX 6 12 2 -2
BITMAP
F8
00
8C
50
60
40
40
40
80
80
00
40
ENDCHAR
STARTCHAR uni1E5E
ENCODING 7774
SWIDTH 640 0
DWIDTH 11 0
BBX 10 14 1 -2
BITMAP
3F00
08C0
0840
0840
1040
1180
1E00
2100
2100
2100
2100
F0C0
0000
3E00
ENDCHAR
STARTCHAR uni1E5F
ENCODING 7775
SWIDTH 402 0
DWIDTH 7 0
BBX 7 10 1 -2
BITMAP
46
28
30
20
20
20
40
40
00
F8
ENDCHAR
STARTCHAR uni1E60
ENCODING 7776
SWIDTH 533 0
DWIDTH 9 0
BBX 9 14 1 0
BITMAP
0400
0000
0E00
1180
2100
2000
1000
0C00
0600
0100
8100
8100
4200
3C00
ENDCHAR
STARTCHAR uni1E61
ENCODING 7777
SWIDTH 389 0
DWIDTH 6 0
BBX 6 10 1 0
BITMAP
10
00
38
44
40
20
10
88
88
70
ENDCHAR
STARTCHAR uni1E62
ENCODING 7778
SWIDTH 533 0
DWIDTH 9 0
BBX 9 14 1 -2
BITMAP
0E00
1180
2100
2000
1000
0C00
0600
0100
8100
8100
4200
3C00
0000
0800
ENDCHAR
STARTCHAR uni1E63
ENCODING 7779
SWIDTH 389 0
DWIDTH 6 0
BBX 6 10 1 -2
BITMAP
38
44
40
20
10
88
88
70
00
20
ENDCHAR
STARTCHAR uni1E64
ENCODING 7780
SWIDTH 533 0
DWIDTH 9 0
BBX 9 18 1 0
BITMAP
0400
0000
0100
0200
0C00
0000
0E00
1180
2100
2000
1000
0C00
0600
0100
8100
8100
4200
3C00
ENDCHAR
STARTCHAR uni1E65
ENCODING 7781
SWIDTH 389 0
DWIDTH 6 0
BBX 6 14 1 0
BITMAP
10
00
04
08
30
00
38
44
40
20
10
88
88
70
ENDCHAR
STARTCHAR uni1E66
ENCODING 7782
SWIDTH 533 0
DWIDTH 9 0
BBX 9 17 1 0
BITMAP
0400
0000
1000
0F80
0000
0E00
1180
2100
2000
1000
0C00
0600
0100
8100
8100
4200
3C00
ENDCHAR
STARTCHAR uni1E67
ENCODING 7783
SWIDTH 389 0
DWIDTH 6 0
BBX 7 14 1 0
BITMAP
08
00
02
34
08
00
38
44
40
20
10
88
88
70
ENDCHAR
STARTCHAR uni1E68
ENCODING 7784
SWIDTH 533 0
DWIDTH 9 0
BBX 9 16 1 -2
BITMAP
0400
0000
0E00
1180
2100
2000
1000
0C00
0600
0100
8100
8100
4200
3C00
0000
0800
ENDCHAR
STARTCHAR uni1E69
ENCODING 7785
SWIDTH 389 0
DWIDTH 6 0
BBX 6 12 1 -2
BITMAP
10
00
38
44
40
20
10
88
88
70
00
20
ENDCHAR
STARTCHAR uni1E6A
ENCODING 7786
SWIDTH 606 0
DWIDTH 10 0
BBX 11 14 2 0
BITMAP
0400
0000
7FE0
8440
8840
0800
0800
0800
1000
1000
1000
1000
1000
FC00
ENDCHAR
STARTCHAR uni1E6B
ENCODING 7787
SWIDTH 341 0
DWIDTH 6 0
BBX 5 12 2 0
BITMAP
20
00
20
20
F8
40
40
40
80
A0
A0
C0
ENDCHAR
STARTCHAR uni1E6C
ENCODING 7788
SWIDTH 606 0
DWIDTH 10 0
BBX 11 14 2 -2
BITMAP
7FE0
8440
8840
0800
0800
0800
1000
1000
1000
1000
1000
FC00
0000
1000
ENDCHAR
STARTCHAR uni1E6D
ENCODING 7789
SWIDTH 341 0
DWIDTH 6 0
BBX 5 12 2 -2
BITMAP
20
20
F8
40
40
40
80
A0
A0
C0
00
40
ENDCHAR
STARTCHAR uni1E6E
ENCODING 7790
SWIDTH 606 0
DWIDTH 10 0
BBX 11 14 2 -2
BITMAP
7FE0
8440
8840
0800
0800
0800
1000
1000
1000
1000
1000
FC00
0000
7C00
ENDCHAR
STARTCHAR uni1E6F
ENCODING 7791
SWIDTH 341 0
DWIDTH 6 0
BBX 6 12 1 -2
BITMAP
10
10
7C
20
20
20
40
50
50
60
00
F8
ENDCHAR
STARTCHAR uni1E70
ENCODING 7792
SWIDTH 606 0
DWIDTH 10 0
BBX 11 16 2 -4
BITMAP
7FE0
8440
8840
0800
0800
0800
1000
1000
1000
1000
1000
FC00
0000
1000
2800
4400
ENDCHAR
STARTCHAR uni1E71
ENCODING 7793
SWIDTH 341 0
DWIDTH 6 0
BBX 6 14 1 -4
BITMAP
10
10
7C
20
20
20
40
50
50
60
00
20
50
88
ENDCHAR
STARTCHAR uni1E72
ENCODING 7794
SWIDTH 794 0
DWIDTH 13 0
BBX 12 14 3 -2
BITMAP
F1F0
4040
4040
4080
4080
8080
8080
8100
8100
8200
4600
3800
0000
3600
ENDCHAR
STARTCHAR uni1E73
ENCODING 7795
SWIDTH 618 0
DWIDTH 10 0
BBX 8 10 2 -2
BITMAP
A1
42
42
42
84
8D
95
66
00
36
ENDCHAR
STARTCHAR uni1E74
ENCODING 7796
SWIDTH 794 0
DWIDTH 13 0
BBX 12 15 3 -3
BITMAP
F1F0
4040
4040
4080
4080
8080
8080
8100
8100
8200
4600
3800
0000
3200
4C00
ENDCHAR
STARTCHAR uni1E75
ENCODING 7797
SWIDTH 618 0
DWIDTH 10 0
BBX 8 11 2 -3
BITMAP
A1
42
42
42
84
8D
95
66
00
32
4C
ENDCHAR
STARTCHAR uni1E76
ENCODING 7798
SWIDTH 794 0
DWIDTH 13 0
BBX 12 16 3 -4
BITMAP
F1F0
4040
4040
4080
4080
8080
8080
8100
8100
8200
4600
3800
0000
0800
1400
2200
ENDCHAR
STARTCHAR uni1E77
ENCODING 7799
SWIDTH 618 0
DWIDTH 10 0
BBX 8 12 2 -4
BITMAP
A1
42
42
42
84
8D
95
66
00
08
14
22
ENDCHAR
STARTCHAR uni1E78
ENCODING 7800
SWIDTH 794 0
DWIDTH 13 0
BBX 12 19 3 0
BITMAP
0080
0100
0600
0000
0C80
1300
0000
F1F0
4040
4040
4080
4080
8080
8080
8100
8100
8200
4600
3800
ENDCHAR
STARTCHAR uni1E79
ENCODING 7801
SWIDTH 618 0
DWIDTH 10 0
BBX 8 15 2 0
BITMAP
02
04
18
00
32
4C
00
A1
42
42
42
84
8D
95
66
ENDCHAR
STARTCHAR uni1E7A
ENCODING 7802
SWIDTH 794 0
DWIDTH 13 0
BBX 12 16 3 0
BITMAP
1B00
0000
1F00
0000
F1F0
4040
4040
4080
4080
8080
8080
8100
8100
8200
4600
3800
ENDCHAR
STARTCHAR uni1E7B
ENCODING 7803
SWIDTH 618 0
DWIDTH 10 0
BBX 8 12 2 0
BITMAP
6C
00
7C
00
A1
42
42
42
84
8D
95
66
ENDCHAR
STARTCHAR uni1E7C
ENCODING 7804
SWIDTH 637 0
DWIDTH 11 0
BBX 11 15 2 0
BITMAP
1900
2600
0000
F1E0
4080
6080
2100
2100
2200
2200
2400
2800
3800
3000
2000
ENDCHAR
STARTCHAR uni1E7D
ENCODING 7805
SWIDTH 510 0
DWIDTH 8 0
BBX 7 11 2 0
BITMAP
32
4C
00
C2
42
42
42
84
88
90
60
ENDCHAR
STARTCHAR uni1E7E
ENCODING 7806
SWIDTH 637 0
DWIDTH 11 0
BBX 11 14 2 -2
BITMAP
F1E0
4080
6080
2100
2100
2200
2200
2400
2800
3800
3000
2000
0000
0800
ENDCHAR
STARTCHAR uni1E7F
ENCODING 7807
SWIDTH 510 0
DWIDTH 8 0
BBX 7 10 2 -2
BITMAP
C2
42
42
42
84
88
90
60
00
20
ENDCHAR
STARTCHAR Wgrave
ENCODING 7808
SWIDTH 946 0
DWIDTH 16 0
BBX 16 16 2 0
BITMAP
0400
0200
0180
0000
F00F
2082
6184
6284
2288
2288
2490
2490
28A0
28A0
30C0
2080
ENDCHAR
STARTCHAR wgrave
ENCODING 7809
SWIDTH 785 0
DWIDTH 13 0
BBX 12 12 2 0
BITMAP
1000
0800
0600
0000
C310
4210
4210
4410
8420
8C40
B480
4300
ENDCHAR
STARTCHAR Wacute
ENCODING 7810
SWIDTH 946 0
DWIDTH 16 0
BBX 16 16 2 0
BITMAP
0040
0080
0300
0000
F00F
2082
6184
6284
2288
2288
2490
2490
28A0
28A0
30C0
2080
ENDCHAR
STARTCHAR wacute
ENCODING 7811
SWIDTH 785 0
DWIDTH 13 0
BBX 12 12 2 0
BITMAP
0080
0100
0600
0000
C310
4210
4210
4410
8420
8C40
B480
4300
ENDCHAR
STARTCHAR Wdieresis
ENCODING 7812
SWIDTH 946 0
DWIDTH 16 0
BBX 16 14 2 0
BITMAP
06C0
0000
F00F
2082
6184
6284
2288
2288
2490
2490
28A0
28A0
30C0
2080
ENDCHAR
STARTCHAR wdieresis
ENCODING 7813
SWIDTH 785 0
DWIDTH 13 0
BBX 12 10 2 0
BITMAP
0D80
0000
C310
4210
4210
4410
8420
8C40
B480
4300
ENDCHAR
STARTCHAR uni1E86
ENCODING 7814
SWIDTH 946 0
DWIDTH 16 0
BBX 16 14 2 0
BITMAP
0100
0000
F00F
2082
6184
6284
2288
2288
2490
2490
28A0
28A0
30C0
2080
ENDCHAR
STARTCHAR uni1E87
ENCODING 7815
SWIDTH 785 0
DWIDTH 13 0
BBX 12 10 2 0
BITMAP
0200
0000
C310
4210
4210
4410
8420
8C40
B480
4300
ENDCHAR
STARTCHAR uni1E88
ENCODING 7816
SWIDTH 946 0
DWIDTH 16 0
BBX 16 14 2 -2
BITMAP
F00F
2082
6184
6284
2288
2288
2490
2490
28A0
28A0
30C0
2080
0000
0200
ENDCHAR
STARTCHAR uni1E89
ENCODING 7817
SWIDTH 785 0
DWIDTH 13 0
BBX 12 10 2 -2
BITMAP
C310
4210
4210
4410
8420
8C40
B480
4300
0000
0400
ENDCHAR
STARTCHAR uni1E8A
ENCODING 7818
SWIDTH 632 0
DWIDTH 11 0
BBX 13 14 0 0
BITMAP
0100
0000
1E78
0420
0440
0480
0300
0200
0200
0500
0900
1080
2080
F1E0
ENDCHAR
STARTCHAR uni1E8B
ENCODING 7819
SWIDTH 516 0
DWIDTH 9 0
BBX 8 10 1 0
BITMAP
08
00
63
14
18
10
18
29
2A
C4
ENDCHAR
STARTCHAR uni1E8C
ENCODING 7820
SWIDTH 632 0
DWIDTH 11 0
BBX 13 14 0 0
BITMAP
06C0
0000
1E78
0420
0440
0480
0300
0200
0200
0500
0900
1080
2080
F1E0
ENDCHAR
STARTCHAR uni1E8D
ENCODING 7821
SWIDTH 516 0
DWIDTH 9 0
BBX 8 10 1 0
BITMAP
36
00
63
14
18
10
18
29
2A
C4
ENDCHAR
STARTCHAR uni1E8E
ENCODING 7822
SWIDTH 591 0
DWIDTH 10 0
BBX 10 14 3 0
BITMAP
0800
0000
E3C0
4100
4200
2200
2400
2800
1000
2000
2000
2000
2000
F800
ENDCHAR
STARTCHAR uni1E8F
ENCODING 7823
SWIDTH 468 0
DWIDTH 8 0
BBX 9 14 0 -4
BITMAP
0400
0000
3080
0880
0880
0900
0900
0A00
0A00
0C00
0800
0800
5000
E000
ENDCHAR
STARTCHAR uni1E90
ENCODING 7824
SWIDTH 622 0
DWIDTH 10 0
BBX 12 16 0 0
BITMAP
0100
0280
0440
0000
0FF0
1020
1040
0080
0100
0200
0600
0800
1000
2040
4040
FF80
ENDCHAR
STARTCHAR uni1E91
ENCODING 7825
SWIDTH 468 0
DWIDTH 8 0
BBX 8 12 1 0
BITMAP
08
14
22
00
3F
42
04
08
10
21
62
9C
ENDCHAR
STARTCHAR uni1E92
ENCODING 7826
SWIDTH 622 0
DWIDTH 10 0
BBX 12 14 0 -2
BITMAP
0FF0
1020
1040
0080
0100
0200
0600
0800
1000
2040
4040
FF80
0000
0400
ENDCHAR
STARTCHAR uni1E93
ENCODING 7827
SWIDTH 468 0
DWIDTH 8 0
BBX 8 10 1 -2
BITMAP
3F
42
04
08
10
21
62
9C
00
10
ENDCHAR
STARTCHAR uni1E94
ENCODING 7828
SWIDTH 622 0
DWIDTH 10 0
BBX 12 14 0 -2
BITMAP
0FF0
1020
1040
0080
0100
0200
0600
0800
1000
2040
4040
FF80
0000
1F00
ENDCHAR
STARTCHAR uni1E95
ENCODING 7829
SWIDTH 468 0
DWIDTH 8 0
BBX 8 10 1 -2
BITMAP
3F
42
04
08
10
21
62
9C
00
7C
ENDCHAR
STARTCHAR uni1E96
ENCODING 7830
SWIDTH 607 0
DWIDTH 10 0
BBX 8 14 2 -2
BITMAP
18
70
10
10
22
2D
31
32
64
45
45
C6
00
3E
ENDCHAR
STARTCHAR uni1E97
ENCODING 7831
SWIDTH 341 0
DWIDTH 6 0
BBX 5 12 2 0
BITMAP
D8
00
20
20
F8
40
40
40
80
A0
A0
C0
ENDCHAR
STARTCHAR uni1E98
ENCODING 7832
SWIDTH 785 0
DWIDTH 13 0
BBX 12 13 2 0
BITMAP
0200
0500
0500
0200
0000
C310
4210
4210
4410
8420
8C40
B480
4300
ENDCHAR
STARTCHAR uni1E99
ENCODING 7833
SWIDTH 468 0
DWIDTH 8 0
BBX 9 17 0 -4
BITMAP
0400
0A00
0A00
0400
0000
3080
0880
0880
0900
0900
0A00
0A00
0C00
0800
0800
5000
E000
ENDCHAR
STARTCHAR uni1EA0
ENCODING 7840
SWIDTH 624 0
DWIDTH 10 0
BBX 11 14 0 -2
BITMAP
0080
0180
0280
0480
0480
0880
0F80
1080
1080
20C0
2080
F1E0
0000
0400
ENDCHAR
STARTCHAR uni1EA1
ENCODING 7841
SWIDTH 561 0
DWIDTH 9 0
BBX 9 10 1 -2
BITMAP
0F80
1100
2100
4100
8200
8600
9A80
6300
0000
0800
ENDCHAR
STARTCHAR uni1EA4
ENCODING 7844
SWIDTH 624 0
DWIDTH 10 0
BBX 12 18 -1 0
BITMAP
0040
0080
0300
0000
01C0
0220
00A0
0180
0280
0280
0480
0840
0FC0
1040
1040
2040
2040
F1F0
ENDCHAR
STARTCHAR uni1EA5
ENCODING 7845
SWIDTH 561 0
DWIDTH 9 0
BBX 9 16 1 0
BITMAP
0080
0100
0600
0000
0200
0500
0880
0000
0F80
1100
2100
4100
8200
8600
9A80
6300
ENDCHAR
STARTCHAR uni1EA6
ENCODING 7846
SWIDTH 624 0
DWIDTH 10 0
BBX 12 18 -1 0
BITMAP
0400
0200
0180
0000
01C0
0220
00A0
0180
0280
0280
0480
0840
0FC0
1040
1040
2040
2040
F1F0
ENDCHAR
STARTCHAR uni1EA7
ENCODING 7847
SWIDTH 561 0
DWIDTH 9 0
BBX 9 16 1 0
BITMAP
1000
0800
0600
0000
0200
0500
0880
0000
0F80
1100
2100
4100
8200
8600
9A80
6300
ENDCHAR
STARTCHAR uni1EAA
ENCODING 7850
SWIDTH 624 0
DWIDTH 10 0
BBX 12 17 -1 0
BITMAP
0320
04C0
0000
01C0
0220
00A0
0180
0280
0280
0480
0840
0FC0
1040
1040
2040
2040
F1F0
ENDCHAR
STARTCHAR uni1EAB
ENCODING 7851
SWIDTH 561 0
DWIDTH 9 0
BBX 9 15 1 0
BITMAP
0C80
1300
0000
0200
0500
0880
0000
0F80
1100
2100
4100
8200
8600
9A80
6300
ENDCHAR
STARTCHAR uni1EAC
ENCODING 7852
SWIDTH 624 0
DWIDTH 10 0
BBX 11 18 0 -2
BITMAP
0200
0500
0880
0000
0080
0180
0280
0480
0480
0880
0F80
1080
1080
20C0
2080
F1E0
0000
0400
ENDCHAR
STARTCHAR uni1EAD
ENCODING 7853
SWIDTH 561 0
DWIDTH 9 0
BBX 9 14 1 -2
BITMAP
0400
0A00
1100
0000
0F80
1100
2100
4100
8200
8600
9A80
6300
0000
0800
ENDCHAR
STARTCHAR uni1EAE
ENCODING 7854
SWIDTH 624 0
DWIDTH 10 0
BBX 11 20 0 0
BITMAP
0080
0100
0600
0000
0880
0880
0700
0000
0080
0180
0280
0480
0480
0880
0F80
1080
1080
20C0
2080
F1E0
ENDCHAR
STARTCHAR uni1EAF
ENCODING 7855
SWIDTH 561 0
DWIDTH 9 0
BBX 9 16 1 0
BITMAP
0100
0200
0C00
0000
1100
1100
0E00
0000
0F80
1100
2100
4100
8200
8600
9A80
6300
ENDCHAR
STARTCHAR uni1EB0
ENCODING 7856
SWIDTH 624 0
DWIDTH 10 0
BBX 11 20 0 0
BITMAP
0800
0400
0300
0000
0880
0880
0700
0000
0080
0180
0280
0480
0480
0880
0F80
1080
1080
20C0
2080
F1E0
ENDCHAR
STARTCHAR uni1EB1
ENCODING 7857
SWIDTH 561 0
DWIDTH 9 0
BBX 9 16 1 0
BITMAP
1000
0800
0600
0000
1100
1100
0E00
0000
0F80
1100
2100
4100
8200
8600
9A80
6300
ENDCHAR
STARTCHAR uni1EB4
ENCODING 7860
SWIDTH 624 0
DWIDTH 10 0
BBX 11 19 0 0
BITMAP
0C80
1300
0000
0880
0880
0700
0000
0080
0180
0280
0480
0480
0880
0F80
1080
1080
20C0
2080
F1E0
ENDCHAR
STARTCHAR uni1EB5
ENCODING 7861
SWIDTH 561 0
DWIDTH 9 0
BBX 9 15 1 0
BITMAP
1900
2600
0000
1100
1100
0E00
0000
0F80
1100
2100
4100
8200
8600
9A80
6300
ENDCHAR
STARTCHAR uni1EB6
ENCODING 7862
SWIDTH 624 0
DWIDTH 10 0
BBX 11 18 0 -2
BITMAP
0880
0880
0700
0000
0080
0180
0280
0480
0480
0880
0F80
1080
1080
20C0
2080
F1E0
0000
0400
ENDCHAR
STARTCHAR uni1EB7
ENCODING 7863
SWIDTH 561 0
DWIDTH 9 0
BBX 9 14 1 -2
BITMAP
1100
1100
0E00
0000
0F80
1100
2100
4100
8200
8600
9A80
6300
0000
0800
ENDCHAR
STARTCHAR uni1EB8
ENCODING 7864
SWIDTH 596 0
DWIDTH 10 0
BBX 11 14 1 -2
BITMAP
1FE0
0840
0840
0800
0800
0880
1F00
1100
2000
2080
2080
FF00
0000
0800
ENDCHAR
STARTCHAR uni1EB9
ENCODING 7865
SWIDTH 453 0
DWIDTH 8 0
BBX 6 10 2 -2
BITMAP
18
24
44
98
60
84
88
70
00
20
ENDCHAR
STARTCHAR uni1EBC
ENCODING 7868
SWIDTH 596 0
DWIDTH 10 0
BBX 11 15 1 0
BITMAP
0C80
1300
0000
1FE0
0840
0840
0800
0800
0880
1F00
1100
2000
2080
2080
FF00
ENDCHAR
STARTCHAR uni1EBD
ENCODING 7869
SWIDTH 453 0
DWIDTH 8 0
BBX 7 11 2 0
BITMAP
32
4C
00
18
24
44
98
60
84
88
70
ENDCHAR
STARTCHAR uni1EBE
ENCODING 7870
SWIDTH 596 0
DWIDTH 10 0
BBX 11 18 1 0
BITMAP
0080
0100
0600
0000
0200
0580
1FE0
0840
0840
0800
0800
0880
1F00
1100
2000
2080
2080
FF00
ENDCHAR
STARTCHAR uni1EBF
ENCODING 7871
SWIDTH 453 0
DWIDTH 8 0
BBX 7 16 2 0
BITMAP
02
04
18
00
08
14
24
00
18
24
44
98
60
84
88
70
ENDCHAR
STARTCHAR uni1EC0
ENCODING 7872
SWIDTH 596 0
DWIDTH 10 0
BBX 11 18 1 0
BITMAP
0800
0400
0300
0000
0200
0580
1FE0
0840
0840
0800
0800
0880
1F00
1100
2000
2080
2080
FF00
ENDCHAR
STARTCHAR uni1EC1
ENCODING 7873
SWIDTH 453 0
DWIDTH 8 0
BBX 6 16 2 0
BITMAP
40
20
18
00
08
14
24
00
18
24
44
98
60
84
88
70
ENDCHAR
STARTCHAR uni1EC4
ENCODING 7876
SWIDTH 596 0
DWIDTH 10 0
BBX 11 17 1 0
BITMAP
0640
0980
0000
0200
0580
1FE0
0840
0840
0800
0800
0880
1F00
1100
2000
2080
2080
FF00
ENDCHAR
STARTCHAR uni1EC5
ENCODING 7877
SWIDTH 453 0
DWIDTH 8 0
BBX 7 15 2 0
BITMAP
32
4C
00
08
14
24
00
18
24
44
98
60
84
88
70
ENDCHAR
STARTCHAR uni1EC6
ENCODING 7878
SWIDTH 596 0
DWIDTH 10 0
BBX 11 18 1 -2
BITMAP
0200
0500
0880
0000
1FE0
0840
0840
0800
0800
0880
1F00
1100
2000
2080
2080
FF00
0000
0800
ENDCHAR
STARTCHAR uni1EC7
ENCODING 7879
SWIDTH 453 0
DWIDTH 8 0
BBX 6 14 2 -2
BITMAP
10
28
44
00
18
24
44
98
60
84
88
70
00
20
ENDCHAR
STARTCHAR uni1ECA
ENCODING 7882
SWIDTH 345 0
DWIDTH 6 0
BBX 7 14 1 -2
BITMAP
3E
08
08
08
10
10
10
10
20
20
20
F8
00
20
ENDCHAR
STARTCHAR uni1ECB
ENCODING 7883
SWIDTH 317 0
DWIDTH 5 0
BBX 4 14 2 -2
BITMAP
10
20
00
00
A0
40
40
40
80
A0
A0
C0
00
40
ENDCHAR
STARTCHAR uni1ECC
ENCODING 7884
SWIDTH 753 0
DWIDTH 13 0
BBX 11 14 2 -2
BITMAP
0F80
1040
2020
4020
4020
8020
8020
8040
8040
8080
6100
1E00
0000
0800
ENDCHAR
STARTCHAR uni1ECD
ENCODING 7885
SWIDTH 537 0
DWIDTH 9 0
BBX 7 10 2 -2
BITMAP
1C
22
42
82
82
84
8C
70
00
10
ENDCHAR
STARTCHAR uni1ED0
ENCODING 7888
SWIDTH 753 0
DWIDTH 13 0
BBX 11 18 2 0
BITMAP
0080
0100
0600
0000
0100
06C0
0F80
1040
2020
4020
4020
8020
8020
8040
8040
8080
6100
1E00
ENDCHAR
STARTCHAR uni1ED1
ENCODING 7889
SWIDTH 537 0
DWIDTH 9 0
BBX 7 16 2 0
BITMAP
02
04
18
00
04
1C
22
00
1C
22
42
82
82
84
8C
70
ENDCHAR
STARTCHAR uni1ED2
ENCODING 7890
SWIDTH 753 0
DWIDTH 13 0
BBX 11 18 2 0
BITMAP
0800
0400
0300
0000
0100
06C0
0F80
1040
2020
4020
4020
8020
8020
8040
8040
8080
6100
1E00
ENDCHAR
STARTCHAR uni1ED3
ENCODING 7891
SWIDTH 537 0
DWIDTH 9 0
BBX 7 16 2 0
BITMAP
20
10
0C
00
04
1C
22
00
1C
22
42
82
82
84
8C
70
ENDCHAR
STARTCHAR uni1ED6
ENCODING 7894
SWIDTH 753 0
DWIDTH 13 0
BBX 11 17 2 0
BITMAP
0640
0980
0000
0100
06C0
0F80
1040
2020
4020
4020
8020
8020
8040
8040
8080
6100
1E00
ENDCHAR
STARTCHAR uni1ED7
ENCODING 7895
SWIDTH 537 0
DWIDTH 9 0
BBX 7 15 2 0
BITMAP
32
4C
00
04
1C
22
00
1C
22
42
82
82
84
8C
70
ENDCHAR
STARTCHAR uni1ED8
ENCODING 7896
SWIDTH 753 0
DWIDTH 13 0
BBX 11 18 2 -2
BITMAP
0200
0500
0880
0000
0F80
1040
2020
4020
4020
8020
8020
8040
8040
8080
6100
1E00
0000
0800
ENDCHAR
STARTCHAR uni1ED9
ENCODING 7897
SWIDTH 537 0
DWIDTH 9 0
BBX 7 14 2 -2
BITMAP
08
14
22
00
1C
22
42
82
82
84
8C
70
00
10
ENDCHAR
STARTCHAR uni1EDA
ENCODING 7898
SWIDTH 753 0
DWIDTH 13 0
BBX 13 16 2 0
BITMAP
0040
0080
0300
0000
0F90
1058
2030
4020
4020
8020
8020
8040
8040
8080
6100
1E00
ENDCHAR
STARTCHAR uni1EDB
ENCODING 7899
SWIDTH 537 0
DWIDTH 9 0
BBX 10 12 2 0
BITMAP
0100
0200
0C00
0000
1C80
22C0
4280
8300
8200
8400
8C00
7000
ENDCHAR
STARTCHAR uni1EDC
ENCODING 7900
SWIDTH 753 0
DWIDTH 13 0
BBX 13 16 2 0
BITMAP
0400
0200
0180
0000
0F90
1058
2030
4020
4020
8020
8020
8040
8040
8080
6100
1E00
ENDCHAR
STARTCHAR uni1EDD
ENCODING 7901
SWIDTH 537 0
DWIDTH 9 0
BBX 10 12 2 0
BITMAP
1000
0800
0600
0000
1C80
22C0
4280
8300
8200
8400
8C00
7000
ENDCHAR
STARTCHAR uni1EE0
ENCODING 7904
SWIDTH 753 0
DWIDTH 13 0
BBX 13 15 2 0
BITMAP
0320
04C0
0000
0F90
1058
2030
4020
4020
8020
8020
8040
8040
8080
6100
1E00
ENDCHAR
STARTCHAR uni1EE1
ENCODING 7905
SWIDTH 537 0
DWIDTH 9 0
BBX 10 11 2 0
BITMAP
0C80
1300
0000
1C80
22C0
4280
8300
8200
8400
8C00
7000
ENDCHAR
STARTCHAR uni1EE2
ENCODING 7906
SWIDTH 753 0
DWIDTH 13 0
BBX 13 14 2 -2
BITMAP
0F90
1058
2030
4020
4020
8020
8020
8040
8040
8080
6100
1E00
0000
0400
ENDCHAR
STARTCHAR uni1EE3
ENCODING 7907
SWIDTH 537 0
DWIDTH 9 0
BBX 10 10 2 -2
BITMAP
1C80
22C0
4280
8300
8200
8400
8C00
7000
0000
1000
ENDCHAR
STARTCHAR uni1EE4
ENCODING 7908
SWIDTH 794 0
DWIDTH 13 0
BBX 12 14 3 -2
BITMAP
F1F0
4040
4040
4080
4080
8080
8080
8100
8100
8200
4600
3800
0000
0800
ENDCHAR
STARTCHAR uni1EE5
ENCODING 7909
SWIDTH 618 0
DWIDTH 10 0
BBX 8 10 2 -2
BITMAP
A1
42
42
42
84
8D
95
66
00
08
ENDCHAR
STARTCHAR uni1EE8
ENCODING 7912
SWIDTH 794 0
DWIDTH 13 0
BBX 14 16 3 0
BITMAP
0040
0080
0300
0000
F1F8
404C
4048
4090
4080
8080
8080
8100
8100
8200
4600
3800
ENDCHAR
STARTCHAR uni1EE9
ENCODING 7913
SWIDTH 618 0
DWIDTH 10 0
BBX 11 12 2 0
BITMAP
0100
0200
0C00
0000
A140
4260
4240
4280
8400
8D00
9500
6600
ENDCHAR
STARTCHAR uni1EEA
ENCODING 7914
SWIDTH 794 0
DWIDTH 13 0
BBX 14 16 3 0
BITMAP
0400
0200
0180
0000
F1F8
404C
4048
4090
4080
8080
8080
8100
8100
8200
4600
3800
ENDCHAR
STARTCHAR uni1EEB
ENCODING 7915
SWIDTH 618 0
DWIDTH 10 0
BBX 11 12 2 0
BITMAP
1000
0800
0600
0000
A140
4260
4240
4280
8400
8D00
9500
6600
ENDCHAR
STARTCHAR uni1EEE
ENCODING 7918
SWIDTH 794 0
DWIDTH 13 0
BBX 14 15 3 0
BITMAP
0640
0980
0000
F1F8
404C
4048
4090
4080
8080
8080
8100
8100
8200
4600
3800
ENDCHAR
STARTCHAR uni1EEF
ENCODING 7919
SWIDTH 618 0
DWIDTH 10 0
BBX 11 11 2 0
BITMAP
0C80
1300
0000
A140
4260
4240
4280
8400
8D00
9500
6600
ENDCHAR
STARTCHAR uni1EF0
ENCODING 7920
SWIDTH 794 0
DWIDTH 13 0
BBX 14 14 3 -2
BITMAP
F1F8
404C
4048
4090
4080
8080
8080
8100
8100
8200
4600
3800
0000
0800
ENDCHAR
STARTCHAR uni1EF1
ENCODING 7921
SWIDTH 618 0
DWIDTH 10 0
BBX 11 10 2 -2
BITMAP
A140
4260
4240
4280
8400
8D00
9500
6600
0000
0800
ENDCHAR
STARTCHAR Ygrave
ENCODING 7922
SWIDTH 591 0
DWIDTH 10 0
BBX 10 16 3 0
BITMAP
2000
1000
0C00
0000
E3C0
4100
4200
2200
2400
2800
1000
2000
2000
2000
2000
F800
ENDCHAR
STARTCHAR ygrave
ENCODING 7923
SWIDTH 468 0
DWIDTH 8 0
BBX 9 16 0 -4
BITMAP
1000
0800
0600
0000
3080
0880
0880
0900
0900
0A00
0A00
0C00
0800
0800
5000
E000
ENDCHAR
STARTCHAR uni1EF4
ENCODING 7924
SWIDTH 591 0
DWIDTH 10 0
BBX 10 14 3 -2
BITMAP
E3C0
4100
4200
2200
2400
2800
1000
2000
2000
2000
2000
F800
0000
1000
ENDCHAR
STARTCHAR uni1EF5
ENCODING 7925
SWIDTH 468 0
DWIDTH 8 0
BBX 9 14 0 -6
BITMAP
3080
0880
0880
0900
0900
0A00
0A00
0C00
0800
0800
5000
E000
0000
1000
ENDCHAR
STARTCHAR uni1EF8
ENCODING 7928
SWIDTH 591 0
DWIDTH 10 0
BBX 10 15 3 0
BITMAP
1900
2600
0000
E3C0
4100
4200
2200
2400
2800
1000
2000
2000
2000
2000
F800
ENDCHAR
STARTCHAR uni1EF9
ENCODING 7929
SWIDTH 468 0
DWIDTH 8 0
BBX 9 15 0 -4
BITMAP
0C80
1300
0000
3080
0880
0880
0900
0900
0A00
0A00
0C00
0800
0800
5000
E000
ENDCHAR
STARTCHAR uni2000
ENCODING 8192
SWIDTH 500 0
DWIDTH 8 0
BBX 1 1 0 0
BITMAP
00
ENDCHAR
STARTCHAR uni2001
ENCODING 8193
SWIDTH 1000 0
DWIDTH 17 0
BBX 1 1 0 0
BITMAP
00
ENDCHAR
STARTCHAR uni2002
ENCODING 8194
SWIDTH 500 0
DWIDTH 8 0
BBX 1 1 0 0
BITMAP
00
ENDCHAR
STARTCHAR uni2003
ENCODING 8195
SWIDTH 1000 0
DWIDTH 17 0
BBX 1 1 0 0
BITMAP
00
ENDCHAR
STARTCHAR uni2004
ENCODING 8196
SWIDTH 333 0
DWIDTH 6 0
BBX 1 1 0 0
BITMAP
00
ENDCHAR
STARTCHAR uni2005
ENCODING 8197
SWIDTH 250 0
DWIDTH 4 0
BBX 1 1 0 0
BITMAP
00
ENDCHAR
STARTCHAR uni2006
ENCODING 8198
SWIDTH 167 0
DWIDTH 3 0
BBX 1 1 0 0
BITMAP
00
ENDCHAR
STARTCHAR uni2007
ENCODING 8199
SWIDTH 530 0
DWIDTH 9 0
BBX 1 1 0 0
BITMAP
00
ENDCHAR
STARTCHAR uni2008
ENCODING 8200
SWIDTH 265 0
DWIDTH 4 0
BBX 1 1 0 0
BITMAP
00
ENDCHAR
STARTCHAR uni2009
ENCODING 8201
SWIDTH 200 0
DWIDTH 3 0
BBX 1 1 0 0
BITMAP
00
ENDCHAR
STARTCHAR uni200A
ENCODING 8202
SWIDTH 100 0
DWIDTH 2 0
BBX 1 1 0 0
BITMAP
00
ENDCHAR
STARTCHAR uni200B
ENCODING 8203
SWIDTH 0 0
DWIDTH 0 0
BBX 1 1 0 0
BITMAP
00
ENDCHAR
STARTCHAR uni2010
ENCODING 8208
SWIDTH 392 0
DWIDTH 7 0
BBX 4 1 2 4
BITMAP
F0
ENDCHAR
STARTCHAR uni2011
ENCODING 8209
SWIDTH 392 0
DWIDTH 7 0
BBX 4 1 2 4
BITMAP
F0
ENDCHAR
STARTCHAR figuredash
ENCODING 8210
SWIDTH 500 0
DWIDTH 8 0
BBX 9 1 1 4
BITMAP
FF80
ENDCHAR
STARTCHAR endash
ENCODING 8211
SWIDTH 500 0
DWIDTH 8 0
BBX 9 1 1 4
BITMAP
FF80
ENDCHAR
STARTCHAR emdash
ENCODING 8212
SWIDTH 1000 0
DWIDTH 17 0
BBX 17 1 1 4
BITMAP
FFFF80
ENDCHAR
STARTCHAR afii00208
ENCODING 8213
SWIDTH 1000 0
DWIDTH 17 0
BBX 17 1 1 4
BITMAP
FFFF80
ENDCHAR
STARTCHAR quoteleft
ENCODING 8216
SWIDTH 216 0
DWIDTH 4 0
BBX 3 4 3 8
BITMAP
20
40
C0
40
ENDCHAR
STARTCHAR quoteright
ENCODING 8217
SWIDTH 216 0
DWIDTH 4 0
BBX 3 4 2 8
BITMAP
40
60
40
80
ENDCHAR
STARTCHAR quotesinglbase
ENCODING 8218
SWIDTH 216 0
DWIDTH 4 0
BBX 3 4 0 -2
BITMAP
40
60
40
80
ENDCHAR
STARTCHAR quotereversed
ENCODING 8219
SWIDTH 216 0
DWIDTH 4 0
BBX 3 4 2 8
BITMAP
40
C0
40
20
ENDCHAR
STARTCHAR quotedblleft
ENCODING 8220
SWIDTH 402 0
DWIDTH 7 0
BBX 6 4 3 8
BITMAP
24
48
D8
48
ENDCHAR
STARTCHAR quotedblright
ENCODING 8221
SWIDTH 402 0
DWIDTH 7 0
BBX 6 4 2 8
BITMAP
48
6C
48
90
ENDCHAR
STARTCHAR quotedblbase
ENCODING 8222
SWIDTH 402 0
DWIDTH 7 0
BBX 6 4 0 -2
BITMAP
48
6C
48
90
ENDCHAR
STARTCHAR uni201F
ENCODING 8223
SWIDTH 402 0
DWIDTH 7 0
BBX 6 4 2 8
BITMAP
48
D8
48
24
ENDCHAR
STARTCHAR dagger
ENCODING 8224
SWIDTH 500 0
DWIDTH 8 0
BBX 6 14 3 -2
BITMAP
10
10
20
20
FC
20
20
20
20
20
40
40
40
40
ENDCHAR
STARTCHAR daggerdbl
ENCODING 8225
SWIDTH 490 0
DWIDTH 8 0
BBX 8 14 1 -2
BITMAP
04
08
08
08
7F
08
08
10
10
FE
10
10
10
20
ENDCHAR
STARTCHAR bullet
ENCODING 8226
SWIDTH 500 0
DWIDTH 8 0
BBX 5 5 3 3
BITMAP
20
70
F8
70
20
ENDCHAR
STARTCHAR ellipsis
ENCODING 8230
SWIDTH 1000 0
DWIDTH 17 0
BBX 14 2 2 0
BITMAP
4104
8208
ENDCHAR
STARTCHAR perthousand
ENCODING 8240
SWIDTH 1200 0
DWIDTH 20 0
BBX 18 12 2 0
BITMAP
003000
3FC000
444000
848000
890000
8A0000
72E180
051240
091440
121440
222480
61C300
ENDCHAR
STARTCHAR guilsinglleft
ENCODING 8249
SWIDTH 277 0
DWIDTH 5 0
BBX 3 7 2 0
BITMAP
20
40
40
80
40
40
40
ENDCHAR
STARTCHAR guilsinglright
ENCODING 8250
SWIDTH 277 0
DWIDTH 5 0
BBX 3 7 1 0
BITMAP
40
40
40
20
40
40
80
ENDCHAR
STARTCHAR fraction
ENCODING 8260
SWIDTH 100 0
DWIDTH 2 0
BBX 10 13 -3 -1
BITMAP
0040
0080
0100
0100
0200
0400
0800
0800
1000
2000
4000
4000
8000
ENDCHAR
STARTCHAR oneinferior
ENCODING 8321
SWIDTH 370 0
DWIDTH 6 0
BBX 4 6 2 -4
BITMAP
10
70
20
20
20
F0
ENDCHAR
STARTCHAR twoinferior
ENCODING 8322
SWIDTH 370 0
DWIDTH 6 0
BBX 5 6 2 -4
BITMAP
30
48
08
30
40
F8
ENDCHAR
STARTCHAR threeinferior
ENCODING 8323
SWIDTH 370 0
DWIDTH 6 0
BBX 6 6 1 -4
BITMAP
18
24
04
38
88
70
ENDCHAR
STARTCHAR uni20A5
ENCODING 8357
SWIDTH 912 0
DWIDTH 15 0
BBX 13 12 2 -2
BITMAP
0040
0080
42B0
2D48
2988
3110
2220
4228
4228
C630
0400
0800
ENDCHAR
STARTCHAR uni20A6
ENCODING 8358
SWIDTH 763 0
DWIDTH 13 0
BBX 15 12 0 0
BITMAP
1C1E
0C08
0A08
0A08
1FF0
1110
1090
1FF0
2090
2060
2040
F020
ENDCHAR
STARTCHAR uni20A9
ENCODING 8361
SWIDTH 946 0
DWIDTH 16 0
BBX 16 12 2 0
BITMAP
F00F
2082
6184
6284
2FF8
2288
2490
2FF0
28A0
28A0
30C0
2080
ENDCHAR
STARTCHAR Euro
ENCODING 8364
SWIDTH 661 0
DWIDTH 11 0
BBX 13 12 0 0
BITMAP
03C0
0C38
1010
1010
FF00
2000
2000
FF00
2020
2040
1040
0F80
ENDCHAR
STARTCHAR uni20AD
ENCODING 8365
SWIDTH 650 0
DWIDTH 11 0
BBX 12 12 1 0
BITMAP
3CF0
0840
0880
1300
1400
FFF0
1400
1400
2200
2200
2100
F8C0
ENDCHAR
STARTCHAR uni2103
ENCODING 8451
SWIDTH 1041 0
DWIDTH 18 0
BBX 17 12 3 0
BITMAP
003C00
70C380
890100
890100
710000
020000
020000
020000
020200
020400
010400
00F800
ENDCHAR
STARTCHAR uni2109
ENCODING 8457
SWIDTH 951 0
DWIDTH 17 0
BBX 16 12 3 0
BITMAP
00FF
7042
8842
8840
7040
0044
00F8
0088
0100
0100
0100
0780
ENDCHAR
STARTCHAR trademark
ENCODING 8482
SWIDTH 1100 0
DWIDTH 18 0
BBX 17 8 2 4
BITMAP
FEC180
92C300
10A500
10A500
109500
109900
109100
39D380
ENDCHAR
STARTCHAR uni212A
ENCODING 8490
SWIDTH 650 0
DWIDTH 11 0
BBX 12 12 1 0
BITMAP
3CF0
0840
0880
1300
1400
1800
1400
1400
2200
2200
2100
F8C0
ENDCHAR
STARTCHAR uni212B
ENCODING 8491
SWIDTH 624 0
DWIDTH 10 0
BBX 12 15 -1 0
BITMAP
00C0
0120
0120
00C0
00C0
0140
0240
0440
0440
07C0
0840
1020
2020
2020
F0F0
ENDCHAR
STARTCHAR uni2132
ENCODING 8498
SWIDTH 571 0
DWIDTH 10 0
BBX 11 12 1 0
BITMAP
01E0
0080
0080
0080
1100
1F00
2200
0200
0200
4200
4200
FF00
ENDCHAR
STARTCHAR minus
ENCODING 8722
SWIDTH 570 0
DWIDTH 9 0
BBX 8 1 2 4
BITMAP
FF
ENDCHAR
STARTCHAR fraction
ENCODING 8725
SWIDTH 100 0
DWIDTH 2 0
BBX 10 13 -3 -1
BITMAP
0040
0080
0100
0100
0200
0400
0800
0800
1000
2000
4000
4000
8000
ENDCHAR
STARTCHAR periodcentered
ENCODING 8729
SWIDTH 265 0
DWIDTH 4 0
BBX 2 2 2 3
BITMAP
40
80
ENDCHAR
STARTCHAR uni2236
ENCODING 8758
SWIDTH 265 0
DWIDTH 4 0
BBX 3 8 2 0
BITMAP
20
60
00
00
00
00
C0
80
ENDCHAR
STARTCHAR uni2259
ENCODING 8793
SWIDTH 570 0
DWIDTH 9 0
BBX 8 8 2 2
BITMAP
08
14
22
00
FF
00
00
FF
ENDCHAR
STARTCHAR uni225A
ENCODING 8794
SWIDTH 570 0
DWIDTH 9 0
BBX 8 8 2 2
BITMAP
22
14
08
00
FF
00
00
FF
ENDCHAR
STARTCHAR notequal
ENCODING 8800
SWIDTH 570 0
DWIDTH 9 0
BBX 8 12 2 -2
BITMAP
02
04
04
08
FF
08
10
FF
10
20
20
40
ENDCHAR
STARTCHAR equivalence
ENCODING 8801
SWIDTH 570 0
DWIDTH 9 0
BBX 8 5 0 1
BITMAP
FF
00
FF
00
FF
ENDCHAR
STARTCHAR uni2262
ENCODING 8802
SWIDTH 570 0
DWIDTH 9 0
BBX 8 12 0 -2
BITMAP
02
04
04
08
FF
08
FF
10
FF
20
20
40
ENDCHAR
STARTCHAR lessequal
ENCODING 8804
SWIDTH 570 0
DWIDTH 9 0
BBX 8 11 1 -3
BITMAP
01
03
0C
70
80
60
18
06
01
00
FF
ENDCHAR
STARTCHAR greaterequal
ENCODING 8805
SWIDTH 570 0
DWIDTH 9 0
BBX 8 11 1 -3
BITMAP
80
C0
30
0E
01
06
18
60
80
00
FF
ENDCHAR
STARTCHAR uni226E
ENCODING 8814
SWIDTH 570 0
DWIDTH 9 0
BBX 8 12 1 -2
BITMAP
02
04
05
0B
0C
78
90
70
18
26
21
40
ENDCHAR
STARTCHAR uni226F
ENCODING 8815
SWIDTH 570 0
DWIDTH 9 0
BBX 8 12 1 -2
BITMAP
02
04
84
C8
38
0E
11
16
18
60
A0
40
ENDCHAR
STARTCHAR uni2270
ENCODING 8816
SWIDTH 570 0
DWIDTH 9 0
BBX 8 12 1 -3
BITMAP
02
05
07
0C
78
88
70
18
16
21
20
FF
ENDCHAR
STARTCHAR uni2271
ENCODING 8817
SWIDTH 570 0
DWIDTH 9 0
BBX 8 12 1 -3
BITMAP
02
84
C4
38
0E
09
16
18
70
A0
20
FF
ENDCHAR
STARTCHAR fi
ENCODING -1
SWIDTH 607 0
DWIDTH 10 0
BBX 11 16 -1 -4
BITMAP
01C0
0220
0220
0400
1FE0
0440
0440
0840
0880
08A0
08A0
10C0
1000
1000
9000
6000
ENDCHAR
STARTCHAR fl
ENCODING -1
SWIDTH 603 0
DWIDTH 10 0
BBX 12 16 -1 -4
BITMAP
01F0
0220
0220
0420
1F40
0440
0840
0840
0880
08A0
08A0
10C0
1000
1000
A000
4000
ENDCHAR
ENDFONT
